<?xml version="1.0" encoding="UTF-8" standalone="no"?>
<svg
   xmlns:dc="http://purl.org/dc/elements/1.1/"
   xmlns:cc="http://creativecommons.org/ns#"
   xmlns:rdf="http://www.w3.org/1999/02/22-rdf-syntax-ns#"
   xmlns:svg="http://www.w3.org/2000/svg"
   xmlns="http://www.w3.org/2000/svg"
   xmlns:sodipodi="http://sodipodi.sourceforge.net/DTD/sodipodi-0.dtd"
   xmlns:inkscape="http://www.inkscape.org/namespaces/inkscape"
   width="256"
   height="160"
   viewBox="0 0 67.733339 42.333332"
   version="1.1"
   id="svg8"
   inkscape:version="1.0.1 (3bc2e813f5, 2020-09-07)"
   sodipodi:docname="dost-ropeaccess-logo-256x160.svg">
  <defs
     id="defs2">
    <rect
       x="-20.264285"
       y="18.539875"
       width="188.9881"
       height="84.28869"
       id="rect839" />
  </defs>
  <sodipodi:namedview
     id="base"
     pagecolor="#ffffff"
     bordercolor="#666666"
     borderopacity="1.0"
     inkscape:pageopacity="0.0"
     inkscape:pageshadow="2"
     inkscape:zoom="1.4"
     inkscape:cx="181.4233"
     inkscape:cy="75.970162"
     inkscape:document-units="mm"
     inkscape:current-layer="layer1"
     showgrid="false"
     fit-margin-top="0"
     fit-margin-left="0"
     fit-margin-right="0"
     fit-margin-bottom="0"
     inkscape:window-width="1920"
     inkscape:window-height="1017"
     inkscape:window-x="-8"
     inkscape:window-y="-8"
     inkscape:window-maximized="1"
     inkscape:document-rotation="0"
     units="px" />
  <metadata
     id="metadata5">
    <rdf:RDF>
      <cc:Work
         rdf:about="">
        <dc:format>image/svg+xml</dc:format>
        <dc:type
           rdf:resource="http://purl.org/dc/dcmitype/StillImage" />
        <dc:title />
      </cc:Work>
    </rdf:RDF>
  </metadata>
  <g
     inkscape:label="Layer 1"
     inkscape:groupmode="layer"
     id="layer1"
     transform="translate(-33.030358,-40.084518)">
    <g
       id="g845"
       transform="matrix(0.26926702,0,0,0.26926702,57.2684,23.02588)">
      <path
         sodipodi:nodetypes="cscsc"
         inkscape:connector-curvature="0"
         id="path826"
         d="m 58.063235,135.73779 c 43.747475,-11.35688 71.450255,-35.951988 71.439425,-47.739188 -0.008,-8.440326 -13.38661,-9.460476 -27.73257,-5.783573 11.95821,0.214567 18.1026,1.378137 18.21965,7.828532 0.17467,9.625287 -23.216718,30.362729 -61.926505,45.694229 z"
         style="fill:#009de0;fill-opacity:1;stroke:none;stroke-width:0.264583px;stroke-linecap:butt;stroke-linejoin:miter;stroke-opacity:1" />
      <path
         sodipodi:nodetypes="cscsc"
         inkscape:connector-curvature="0"
         id="path826-5"
         d="m 101.43447,129.86188 c 25.07705,-7.05287 39.88774,-21.73577 39.88123,-28.8107 -0.004,-5.06609 -7.1262,-6.469449 -15.31175,-4.073494 6.742,0.621766 9.67842,1.193715 9.74868,5.065384 0.10482,5.77732 -13.10936,17.37808 -34.31816,27.81881 z"
         style="fill:#009de0;fill-opacity:1;stroke:none;stroke-width:0.158809px;stroke-linecap:butt;stroke-linejoin:miter;stroke-opacity:1" />
    </g>
    <g
       aria-label="Dost
Industrial Rope Access
Training Course"
       id="text835"
       style="font-size:8.27126px;line-height:1;font-family:ParalucentW00-Medium;-inkscape-font-specification:ParalucentW00-Medium;text-align:start;text-anchor:start;fill:#009de0;fill-opacity:1;stroke-width:0.206782">
      <path
         d="m 45.443981,51.389599 q 0,1.340556 -0.352778,2.39889 -0.352778,1.058335 -1.040695,1.799168 -0.670278,0.740834 -1.658056,1.12889 -0.987779,0.388056 -2.275419,0.388056 H 35.989531 V 45.815706 h 4.303891 q 2.557641,0 3.845281,1.428751 1.305278,1.411112 1.305278,4.145142 z m -1.887362,-0.01764 q 0,-1.146528 -0.229306,-1.905001 -0.229305,-0.776112 -0.687917,-1.234723 -0.458611,-0.458612 -1.164167,-0.635001 -0.687917,-0.194028 -1.60514,-0.194028 h -1.957918 v 8.113895 h 1.852084 q 0.934862,0 1.640418,-0.211667 0.705556,-0.229306 1.181806,-0.705556 0.476251,-0.493889 0.723195,-1.28764 0.246945,-0.79375 0.246945,-1.940279 z"
         style="font-size:17.6389px;text-align:start;text-anchor:start;fill:#009de0;fill-opacity:1;stroke-width:0.206782"
         id="path839" />
      <path
         d="m 55.745098,52.589044 q 0,0.899584 -0.211667,1.746251 -0.194027,0.829029 -0.723195,1.481668 -0.511528,0.635 -1.375834,1.023056 -0.864306,0.388056 -2.187223,0.388056 -1.322918,0 -2.187224,-0.388056 -0.864306,-0.388056 -1.375834,-1.023056 -0.49389,-0.652639 -0.705556,-1.481668 -0.194028,-0.846667 -0.194028,-1.746251 0,-0.899584 0.194028,-1.728612 0.211666,-0.829028 0.705556,-1.481668 0.511528,-0.652639 1.375834,-1.040695 0.881945,-0.388056 2.204862,-0.388056 1.322918,0 2.187224,0.388056 0.864306,0.388056 1.375834,1.040695 0.511529,0.65264 0.705556,1.481668 0.211667,0.829028 0.211667,1.728612 z m -1.92264,0 q 0,-0.635 -0.105833,-1.199445 -0.08819,-0.564445 -0.370417,-0.987778 -0.282223,-0.423334 -0.793751,-0.670279 -0.493889,-0.246944 -1.28764,-0.246944 -0.79375,0 -1.287639,0.246944 -0.49389,0.246945 -0.776112,0.670279 -0.282222,0.423333 -0.388056,0.987778 -0.105833,0.564445 -0.105833,1.199445 0,0.635001 0.105833,1.199445 0.105834,0.564445 0.388056,0.987779 0.282222,0.423334 0.776112,0.670278 0.493889,0.246945 1.270001,0.246945 0.79375,0 1.287639,-0.229306 0.511528,-0.246945 0.793751,-0.670278 0.282222,-0.423334 0.388056,-0.987779 0.105833,-0.564444 0.105833,-1.217084 z"
         style="font-size:17.6389px;text-align:start;text-anchor:start;fill:#009de0;fill-opacity:1;stroke-width:0.206782"
         id="path841" />
      <path
         d="m 65.076051,54.494046 q 0,0.493889 -0.229306,0.987778 -0.211667,0.493889 -0.687917,0.881945 -0.476251,0.388056 -1.234723,0.635 -0.740834,0.229306 -1.816807,0.229306 -2.293057,0 -3.333752,-0.881945 -1.023057,-0.881945 -1.023057,-2.610557 h 1.852085 q 0,0.934862 0.564445,1.464029 0.582084,0.529167 1.905001,0.529167 0.599723,0 1.005417,-0.105834 0.405695,-0.105833 0.65264,-0.264583 0.264583,-0.15875 0.370417,-0.352778 0.105833,-0.211667 0.123472,-0.405695 0.01764,-0.493889 -0.458611,-0.740834 -0.458612,-0.264583 -1.164168,-0.423334 -0.687917,-0.15875 -1.516945,-0.299861 -0.81139,-0.141111 -1.516946,-0.405695 -0.705556,-0.264583 -1.181806,-0.723195 -0.458612,-0.47625 -0.458612,-1.287639 0,-0.599723 0.211667,-1.093612 0.211667,-0.511528 0.687917,-0.881945 0.476251,-0.370417 1.217085,-0.582084 0.758472,-0.211667 1.834445,-0.211667 1.093612,0 1.852085,0.246945 0.758473,0.246945 1.217084,0.687917 0.47625,0.440973 0.687917,1.075973 0.211667,0.617362 0.211667,1.358195 h -1.76389 q -0.03528,-0.440972 -0.15875,-0.79375 -0.105834,-0.352778 -0.370417,-0.599723 -0.264584,-0.246944 -0.687917,-0.370417 -0.423334,-0.141111 -1.040695,-0.141111 -0.564445,0 -0.952501,0.105833 -0.388056,0.08819 -0.635001,0.246945 -0.229305,0.15875 -0.335139,0.370417 -0.105833,0.211667 -0.105833,0.423334 0,0.440972 0.458611,0.670278 0.476251,0.211667 1.164168,0.370417 0.705556,0.15875 1.516945,0.3175 0.81139,0.141111 1.499307,0.440973 0.705556,0.282222 1.164167,0.79375 0.476251,0.493889 0.476251,1.340557 z"
         style="font-size:17.6389px;text-align:start;text-anchor:start;fill:#009de0;fill-opacity:1;stroke-width:0.206782"
         id="path843" />
      <path
         d="m 68.427395,49.590431 v 4.921253 q 0,0.317501 0.08819,0.546806 0.08819,0.229306 0.335139,0.388056 0.246945,0.141111 0.687917,0.194028 0.458612,0.05292 1.199445,0.01764 v 1.516945 q -1.11125,0.07056 -1.92264,-0.03528 -0.79375,-0.105834 -1.322917,-0.423334 -0.511528,-0.3175 -0.758473,-0.864306 -0.229306,-0.546806 -0.229306,-1.340557 v -4.921253 h -1.28764 v -1.12889 l 1.28764,-0.388055 v -2.25778 h 1.869724 v 2.25778 h 2.363612 v 1.516945 z"
         style="font-size:17.6389px;text-align:start;text-anchor:start;fill:#009de0;fill-opacity:1;stroke-width:0.206782"
         id="path845" />
      <path
         d="m 35.244463,67.505233 v -4.064 h 0.6985 v 4.064 z"
         style="font-size:6.35px;text-align:start;text-anchor:start;fill:#009de0;fill-opacity:1;stroke-width:0.206782"
         id="path847" />
      <path
         d="m 38.990962,67.505233 v -1.80975 q 0,-0.2159 -0.0254,-0.38735 -0.0254,-0.17145 -0.1143,-0.28575 -0.08255,-0.12065 -0.2413,-0.18415 -0.1524,-0.0635 -0.41275,-0.0635 -0.26035,0 -0.42545,0.0635 -0.15875,0.05715 -0.254,0.1778 -0.0889,0.12065 -0.127,0.2921 -0.03175,0.17145 -0.03175,0.38735 v 1.80975 h -0.67945 v -3.2512 h 0.3683 l 0.1524,0.4572 q 0.0381,-0.08255 0.127,-0.17145 0.0889,-0.0889 0.2286,-0.15875 0.14605,-0.0762 0.34925,-0.12065 0.2032,-0.0508 0.4826,-0.0508 0.40005,0 0.6477,0.1143 0.254,0.10795 0.38735,0.31115 0.1397,0.2032 0.1905,0.48895 0.0508,0.28575 0.0508,0.62865 v 1.7526 z"
         style="font-size:6.35px;text-align:start;text-anchor:start;fill:#009de0;fill-opacity:1;stroke-width:0.206782"
         id="path849" />
      <path
         d="m 42.934311,67.505233 -0.1524,-0.46355 q -0.04445,0.08255 -0.1397,0.17145 -0.0889,0.0889 -0.2413,0.1651 -0.14605,0.0762 -0.36195,0.127 -0.2159,0.04445 -0.50165,0.04445 -0.40005,0 -0.6731,-0.13335 -0.2667,-0.1397 -0.42545,-0.3683 -0.15875,-0.2286 -0.2286,-0.52705 -0.0635,-0.3048 -0.0635,-0.64135 0,-0.3302 0.0635,-0.635 0.0635,-0.3048 0.22225,-0.5334 0.15875,-0.2286 0.42545,-0.36195 0.2667,-0.1397 0.6731,-0.1397 0.2413,0 0.42545,0.0381 0.18415,0.0381 0.3175,0.1016 0.13335,0.0635 0.22225,0.14605 0.0889,0.0762 0.1397,0.15875 v -1.638299 h 0.66675 v 4.489449 z m -0.2921,-1.6256 q 0,-0.23495 -0.03175,-0.4318 -0.03175,-0.2032 -0.13335,-0.34925 -0.09525,-0.1524 -0.27305,-0.23495 -0.1778,-0.08255 -0.4699,-0.08255 -0.2794,0 -0.4572,0.08255 -0.17145,0.0762 -0.27305,0.22225 -0.09525,0.14605 -0.13335,0.34925 -0.03175,0.19685 -0.03175,0.4445 0,0.24765 0.03175,0.45085 0.0381,0.2032 0.13335,0.34925 0.1016,0.14605 0.27305,0.2286 0.17145,0.08255 0.45085,0.08255 0.28575,0 0.46355,-0.0762 0.1778,-0.08255 0.27305,-0.2286 0.1016,-0.14605 0.1397,-0.34925 0.0381,-0.20955 0.0381,-0.4572 z"
         style="font-size:6.35px;text-align:start;text-anchor:start;fill:#009de0;fill-opacity:1;stroke-width:0.206782"
         id="path851" />
      <path
         d="m 46.528408,67.505233 -0.1397,-0.4699 q -0.04445,0.0889 -0.13335,0.18415 -0.0889,0.0889 -0.23495,0.1651 -0.14605,0.06985 -0.34925,0.12065 -0.2032,0.04445 -0.47625,0.04445 -0.40005,0 -0.65405,-0.10795 -0.24765,-0.10795 -0.38735,-0.3048 -0.1397,-0.19685 -0.1905,-0.47625 -0.0508,-0.2794 -0.0508,-0.6223 v -1.78435 h 0.66675 v 1.83515 q 0,0.22225 0.0254,0.38735 0.03175,0.1651 0.1143,0.2794 0.0889,0.10795 0.24765,0.1651 0.15875,0.05715 0.4191,0.05715 0.254,0 0.4191,-0.05715 0.1651,-0.0635 0.254,-0.1778 0.0889,-0.12065 0.12065,-0.2921 0.0381,-0.17145 0.0381,-0.3937 v -1.8034 h 0.6858 v 3.2512 z"
         style="font-size:6.35px;text-align:start;text-anchor:start;fill:#009de0;fill-opacity:1;stroke-width:0.206782"
         id="path853" />
      <path
         d="m 50.382858,66.565433 q 0,0.1778 -0.08255,0.3556 -0.0762,0.1778 -0.24765,0.3175 -0.17145,0.1397 -0.4445,0.2286 -0.2667,0.08255 -0.65405,0.08255 -0.8255,0 -1.20015,-0.3175 -0.3683,-0.3175 -0.3683,-0.9398 h 0.66675 q 0,0.33655 0.2032,0.52705 0.20955,0.1905 0.6858,0.1905 0.2159,0 0.36195,-0.0381 0.14605,-0.0381 0.23495,-0.09525 0.09525,-0.05715 0.13335,-0.127 0.0381,-0.0762 0.04445,-0.14605 0.0064,-0.1778 -0.1651,-0.2667 -0.1651,-0.09525 -0.4191,-0.1524 -0.24765,-0.05715 -0.5461,-0.10795 -0.2921,-0.0508 -0.5461,-0.14605 -0.254,-0.09525 -0.42545,-0.26035 -0.1651,-0.17145 -0.1651,-0.46355 0,-0.2159 0.0762,-0.3937 0.0762,-0.18415 0.24765,-0.3175 0.17145,-0.13335 0.43815,-0.20955 0.27305,-0.0762 0.6604,-0.0762 0.3937,0 0.66675,0.0889 0.27305,0.0889 0.43815,0.24765 0.17145,0.15875 0.24765,0.38735 0.0762,0.22225 0.0762,0.48895 h -0.635 q -0.0127,-0.15875 -0.05715,-0.28575 -0.0381,-0.127 -0.13335,-0.2159 -0.09525,-0.0889 -0.24765,-0.13335 -0.1524,-0.0508 -0.37465,-0.0508 -0.2032,0 -0.3429,0.0381 -0.1397,0.03175 -0.2286,0.0889 -0.08255,0.05715 -0.12065,0.13335 -0.0381,0.0762 -0.0381,0.1524 0,0.15875 0.1651,0.2413 0.17145,0.0762 0.4191,0.13335 0.254,0.05715 0.5461,0.1143 0.2921,0.0508 0.53975,0.15875 0.254,0.1016 0.4191,0.28575 0.17145,0.1778 0.17145,0.4826 z"
         style="font-size:6.35px;text-align:start;text-anchor:start;fill:#009de0;fill-opacity:1;stroke-width:0.206782"
         id="path855" />
      <path
         d="m 51.58934,64.800133 v 1.77165 q 0,0.1143 0.03175,0.19685 0.03175,0.08255 0.12065,0.1397 0.0889,0.0508 0.24765,0.06985 0.1651,0.01905 0.4318,0.0063 v 0.5461 q -0.40005,0.0254 -0.69215,-0.0127 -0.28575,-0.0381 -0.47625,-0.1524 -0.18415,-0.1143 -0.27305,-0.31115 -0.08255,-0.19685 -0.08255,-0.4826 v -1.77165 h -0.46355 v -0.4064 l 0.46355,-0.1397 v -0.8128 h 0.6731 v 0.8128 h 0.8509 v 0.5461 z"
         style="font-size:6.35px;text-align:start;text-anchor:start;fill:#009de0;fill-opacity:1;stroke-width:0.206782"
         id="path857" />
      <path
         d="m 54.535739,64.812833 q -0.0508,0 -0.09525,-0.0063 -0.04445,-0.0063 -0.0889,-0.0063 -0.254,0 -0.41275,0.06985 -0.15875,0.0635 -0.24765,0.18415 -0.0889,0.12065 -0.12065,0.28575 -0.03175,0.1651 -0.03175,0.36195 v 1.8034 h -0.67945 v -3.2512 h 0.36195 l 0.15875,0.45085 q 0.0381,-0.08255 0.1143,-0.1651 0.08255,-0.0889 0.20955,-0.15875 0.127,-0.0762 0.3048,-0.12065 0.1778,-0.0508 0.4191,-0.0508 h 0.10795 v 0.60325 z"
         style="font-size:6.35px;text-align:start;text-anchor:start;fill:#009de0;fill-opacity:1;stroke-width:0.206782"
         id="path859" />
      <path
         d="m 55.710484,63.472983 q 0,0.2413 -0.13335,0.32385 -0.127,0.08255 -0.34925,0.08255 -0.2286,0 -0.3683,-0.08255 -0.13335,-0.08255 -0.13335,-0.32385 0,-0.24765 0.13335,-0.3302 0.1397,-0.08255 0.3683,-0.08255 0.22225,0 0.34925,0.08255 0.13335,0.08255 0.13335,0.3302 z m -0.8255,4.03225 v -3.2512 h 0.6731 v 3.2512 z"
         style="font-size:6.35px;text-align:start;text-anchor:start;fill:#009de0;fill-opacity:1;stroke-width:0.206782"
         id="path861" />
      <path
         d="m 58.74578,67.505233 -0.1397,-0.48895 q -0.05715,0.09525 -0.17145,0.1905 -0.10795,0.09525 -0.27305,0.17145 -0.15875,0.0762 -0.3683,0.127 -0.20955,0.04445 -0.46355,0.04445 -0.26035,0 -0.48895,-0.05715 -0.2286,-0.0635 -0.40005,-0.18415 -0.17145,-0.12065 -0.27305,-0.3048 -0.09525,-0.1905 -0.09525,-0.45085 0,-0.45085 0.32385,-0.66675 0.3302,-0.22225 1.0287,-0.2921 l 1.02235,-0.1016 q -0.0063,-0.1778 -0.0508,-0.31115 -0.0381,-0.1397 -0.13335,-0.23495 -0.09525,-0.09525 -0.254,-0.14605 -0.15875,-0.0508 -0.4064,-0.0508 -0.2286,0 -0.37465,0.04445 -0.14605,0.04445 -0.23495,0.127 -0.0889,0.08255 -0.127,0.2032 -0.03175,0.12065 -0.03175,0.27305 l -0.6604,0.0064 q 0,-0.254 0.05715,-0.4699 0.0635,-0.2159 0.22225,-0.37465 0.1651,-0.1651 0.43815,-0.254 0.27305,-0.09525 0.70485,-0.09525 0.4953,0 0.79375,0.1016 0.3048,0.1016 0.46355,0.2921 0.15875,0.1905 0.20955,0.4572 0.0508,0.2667 0.0508,0.5969 v 1.84785 z m -0.29845,-1.4986 -0.92075,0.1016 q -0.42545,0.0508 -0.59055,0.1524 -0.1651,0.09525 -0.1651,0.28575 0,0.22225 0.18415,0.34925 0.18415,0.12065 0.5461,0.12065 0.45085,0 0.6985,-0.2413 0.24765,-0.2413 0.24765,-0.66675 z"
         style="font-size:6.35px;text-align:start;text-anchor:start;fill:#009de0;fill-opacity:1;stroke-width:0.206782"
         id="path863" />
      <path
         d="m 59.691929,67.505233 v -4.489449 h 0.67945 v 4.489449 z"
         style="font-size:6.35px;text-align:start;text-anchor:start;fill:#009de0;fill-opacity:1;stroke-width:0.206782"
         id="path865" />
      <path
         d="m 64.88621,67.505233 -1.6383,-1.59385 v 1.59385 h -0.6985 v -4.064 h 1.4478 q 0.5715,0 0.90805,0.13335 0.33655,0.127 0.508,0.32385 0.1778,0.19685 0.22225,0.42545 0.0508,0.22225 0.0508,0.4191 0,0.37465 -0.1397,0.61595 -0.13335,0.2413 -0.36195,0.381 -0.22225,0.1397 -0.508,0.1905 -0.2794,0.0508 -0.5715,0.0508 l 1.72085,1.524 z m 0.09525,-2.76225 q 0,-0.12065 -0.03175,-0.24765 -0.03175,-0.127 -0.13335,-0.23495 -0.1016,-0.10795 -0.2921,-0.1778 -0.18415,-0.06985 -0.4953,-0.06985 h -0.78105 v 1.4478 h 0.79375 q 0.31115,0 0.4953,-0.0635 0.18415,-0.06985 0.2794,-0.17145 0.1016,-0.10795 0.13335,-0.23495 0.03175,-0.127 0.03175,-0.24765 z"
         style="font-size:6.35px;text-align:start;text-anchor:start;fill:#009de0;fill-opacity:1;stroke-width:0.206782"
         id="path867" />
      <path
         d="m 69.274053,65.879633 q 0,0.32385 -0.0762,0.62865 -0.06985,0.29845 -0.26035,0.5334 -0.18415,0.2286 -0.4953,0.3683 -0.31115,0.1397 -0.7874,0.1397 -0.47625,0 -0.7874,-0.1397 -0.31115,-0.1397 -0.4953,-0.3683 -0.1778,-0.23495 -0.254,-0.5334 -0.06985,-0.3048 -0.06985,-0.62865 0,-0.32385 0.06985,-0.6223 0.0762,-0.29845 0.254,-0.5334 0.18415,-0.23495 0.4953,-0.37465 0.3175,-0.1397 0.79375,-0.1397 0.47625,0 0.7874,0.1397 0.31115,0.1397 0.4953,0.37465 0.18415,0.23495 0.254,0.5334 0.0762,0.29845 0.0762,0.6223 z m -0.69215,0 q 0,-0.2286 -0.0381,-0.4318 -0.03175,-0.2032 -0.13335,-0.3556 -0.1016,-0.1524 -0.28575,-0.2413 -0.1778,-0.0889 -0.46355,-0.0889 -0.28575,0 -0.46355,0.0889 -0.1778,0.0889 -0.2794,0.2413 -0.1016,0.1524 -0.1397,0.3556 -0.0381,0.2032 -0.0381,0.4318 0,0.2286 0.0381,0.4318 0.0381,0.2032 0.1397,0.3556 0.1016,0.1524 0.2794,0.2413 0.1778,0.0889 0.4572,0.0889 0.28575,0 0.46355,-0.08255 0.18415,-0.0889 0.28575,-0.2413 0.1016,-0.1524 0.1397,-0.3556 0.0381,-0.2032 0.0381,-0.43815 z"
         style="font-size:6.35px;text-align:start;text-anchor:start;fill:#009de0;fill-opacity:1;stroke-width:0.206782"
         id="path869" />
      <path
         d="m 72.950695,65.885983 q 0,0.33655 -0.0635,0.64135 -0.0635,0.29845 -0.22225,0.52705 -0.1524,0.2286 -0.4191,0.36195 -0.2667,0.13335 -0.66675,0.13335 -0.2413,0 -0.42545,-0.0381 -0.18415,-0.0381 -0.3175,-0.1016 -0.13335,-0.0635 -0.22225,-0.1397 -0.0889,-0.08255 -0.1397,-0.1651 v 1.67005 h -0.66675 v -4.5212 h 0.3683 l 0.1397,0.46355 q 0.04445,-0.08255 0.1397,-0.17145 0.09525,-0.0889 0.2413,-0.1651 0.1524,-0.0762 0.36195,-0.12065 0.2159,-0.0508 0.508,-0.0508 0.40005,0 0.66675,0.1397 0.2667,0.13335 0.42545,0.3683 0.15875,0.2286 0.22225,0.5334 0.06985,0.3048 0.06985,0.635 z m -0.67945,0 q 0,-0.24765 -0.0381,-0.45085 -0.03175,-0.20955 -0.13335,-0.3556 -0.09525,-0.14605 -0.27305,-0.2286 -0.17145,-0.08255 -0.4445,-0.08255 -0.28575,0 -0.46355,0.08255 -0.1778,0.0762 -0.2794,0.22225 -0.09525,0.14605 -0.13335,0.3556 -0.0381,0.2032 -0.0381,0.4572 0,0.2413 0.03175,0.4445 0.03175,0.19685 0.127,0.3429 0.09525,0.14605 0.27305,0.2286 0.1778,0.08255 0.46355,0.08255 0.2794,0 0.4572,-0.0762 0.1778,-0.08255 0.27305,-0.2286 0.1016,-0.14605 0.1397,-0.3429 0.0381,-0.2032 0.0381,-0.45085 z"
         style="font-size:6.35px;text-align:start;text-anchor:start;fill:#009de0;fill-opacity:1;stroke-width:0.206782"
         id="path871" />
      <path
         d="m 76.468594,66.508283 q -0.01905,0.20955 -0.10795,0.40005 -0.0889,0.18415 -0.26035,0.3302 -0.17145,0.1397 -0.4445,0.2286 -0.2667,0.08255 -0.6477,0.08255 -0.48895,0 -0.80645,-0.1397 -0.3175,-0.1397 -0.50165,-0.3683 -0.18415,-0.23495 -0.254,-0.53975 -0.06985,-0.3048 -0.06985,-0.62865 0,-0.32385 0.06985,-0.6223 0.0762,-0.3048 0.254,-0.5334 0.18415,-0.23495 0.4953,-0.3683 0.3175,-0.1397 0.80645,-0.1397 0.45085,0 0.74295,0.15875 0.29845,0.15875 0.46355,0.42545 0.17145,0.2667 0.22225,0.6223 0.05715,0.34925 0.0254,0.73025 h -2.3749 q 0.03175,0.4191 0.24765,0.65405 0.2159,0.2286 0.65405,0.2286 0.2032,0 0.33655,-0.04445 0.1397,-0.04445 0.2286,-0.1143 0.0889,-0.0762 0.13335,-0.17145 0.0508,-0.09525 0.0762,-0.1905 z m -0.7112,-0.9144 q 0,-0.1651 -0.04445,-0.3175 -0.0381,-0.15875 -0.13335,-0.27305 -0.09525,-0.12065 -0.254,-0.1905 -0.15875,-0.0762 -0.38735,-0.0762 -0.2413,0 -0.40005,0.06985 -0.1524,0.06985 -0.254,0.1905 -0.09525,0.1143 -0.1397,0.27305 -0.04445,0.15875 -0.05715,0.33655 h 1.67005 q 0,0 0,-0.0063 0,0 0,-0.0063 z"
         style="font-size:6.35px;text-align:start;text-anchor:start;fill:#009de0;fill-opacity:1;stroke-width:0.206782"
         id="path873" />
      <path
         d="m 81.396174,67.505233 -0.27305,-0.79375 h -1.9939 l -0.2921,0.79375 h -0.73025 l 1.5621,-4.064 h 0.94615 l 1.524,4.064 z m -1.27,-3.61315 -0.8255,2.3114 h 1.64465 z"
         style="font-size:6.35px;text-align:start;text-anchor:start;fill:#009de0;fill-opacity:1;stroke-width:0.206782"
         id="path875" />
      <path
         d="m 85.276006,66.228883 q 0,0.29845 -0.0889,0.5461 -0.08255,0.2413 -0.26035,0.41275 -0.1778,0.17145 -0.45085,0.2667 -0.27305,0.09525 -0.6477,0.09525 -0.4826,0 -0.79375,-0.1397 -0.31115,-0.1397 -0.4953,-0.3683 -0.18415,-0.23495 -0.26035,-0.5334 -0.06985,-0.3048 -0.06985,-0.62865 0,-0.32385 0.06985,-0.6223 0.0762,-0.3048 0.26035,-0.5334 0.18415,-0.23495 0.4953,-0.37465 0.31115,-0.1397 0.78105,-0.1397 0.74295,0 1.09855,0.3683 0.36195,0.36195 0.36195,0.97155 h -0.69215 q -0.03175,-0.381 -0.20955,-0.5842 -0.17145,-0.2032 -0.57785,-0.2032 -0.26035,0 -0.43815,0.0889 -0.17145,0.08255 -0.27305,0.23495 -0.1016,0.14605 -0.14605,0.34925 -0.0381,0.2032 -0.0381,0.43815 0,0.2286 0.0381,0.4318 0.04445,0.19685 0.14605,0.34925 0.1016,0.14605 0.2794,0.2286 0.1778,0.08255 0.4445,0.08255 0.4064,0 0.5715,-0.1905 0.17145,-0.1905 0.2032,-0.5461 h 0.69215 z"
         style="font-size:6.35px;text-align:start;text-anchor:start;fill:#009de0;fill-opacity:1;stroke-width:0.206782"
         id="path877" />
      <path
         d="m 88.711343,66.228883 q 0,0.29845 -0.0889,0.5461 -0.08255,0.2413 -0.26035,0.41275 -0.1778,0.17145 -0.45085,0.2667 -0.27305,0.09525 -0.6477,0.09525 -0.4826,0 -0.79375,-0.1397 -0.31115,-0.1397 -0.4953,-0.3683 -0.18415,-0.23495 -0.26035,-0.5334 -0.06985,-0.3048 -0.06985,-0.62865 0,-0.32385 0.06985,-0.6223 0.0762,-0.3048 0.26035,-0.5334 0.18415,-0.23495 0.4953,-0.37465 0.31115,-0.1397 0.78105,-0.1397 0.74295,0 1.09855,0.3683 0.36195,0.36195 0.36195,0.97155 h -0.69215 q -0.03175,-0.381 -0.20955,-0.5842 -0.17145,-0.2032 -0.57785,-0.2032 -0.26035,0 -0.43815,0.0889 -0.17145,0.08255 -0.27305,0.23495 -0.1016,0.14605 -0.14605,0.34925 -0.0381,0.2032 -0.0381,0.43815 0,0.2286 0.0381,0.4318 0.04445,0.19685 0.14605,0.34925 0.1016,0.14605 0.2794,0.2286 0.1778,0.08255 0.4445,0.08255 0.4064,0 0.5715,-0.1905 0.17145,-0.1905 0.2032,-0.5461 h 0.69215 z"
         style="font-size:6.35px;text-align:start;text-anchor:start;fill:#009de0;fill-opacity:1;stroke-width:0.206782"
         id="path879" />
      <path
         d="m 92.222889,66.508283 q -0.01905,0.20955 -0.10795,0.40005 -0.0889,0.18415 -0.26035,0.3302 -0.17145,0.1397 -0.4445,0.2286 -0.2667,0.08255 -0.6477,0.08255 -0.48895,0 -0.80645,-0.1397 -0.3175,-0.1397 -0.50165,-0.3683 -0.18415,-0.23495 -0.254,-0.53975 -0.06985,-0.3048 -0.06985,-0.62865 0,-0.32385 0.06985,-0.6223 0.0762,-0.3048 0.254,-0.5334 0.18415,-0.23495 0.4953,-0.3683 0.3175,-0.1397 0.80645,-0.1397 0.45085,0 0.74295,0.15875 0.29845,0.15875 0.46355,0.42545 0.17145,0.2667 0.22225,0.6223 0.05715,0.34925 0.0254,0.73025 h -2.3749 q 0.03175,0.4191 0.24765,0.65405 0.2159,0.2286 0.65405,0.2286 0.2032,0 0.33655,-0.04445 0.1397,-0.04445 0.2286,-0.1143 0.0889,-0.0762 0.13335,-0.17145 0.0508,-0.09525 0.0762,-0.1905 z m -0.7112,-0.9144 q 0,-0.1651 -0.04445,-0.3175 -0.0381,-0.15875 -0.13335,-0.27305 -0.09525,-0.12065 -0.254,-0.1905 -0.15875,-0.0762 -0.38735,-0.0762 -0.2413,0 -0.40005,0.06985 -0.1524,0.06985 -0.254,0.1905 -0.09525,0.1143 -0.1397,0.27305 -0.04445,0.15875 -0.05715,0.33655 h 1.67005 q 0,0 0,-0.0063 0,0 0,-0.0063 z"
         style="font-size:6.35px;text-align:start;text-anchor:start;fill:#009de0;fill-opacity:1;stroke-width:0.206782"
         id="path881" />
      <path
         d="m 95.594728,66.565433 q 0,0.1778 -0.08255,0.3556 -0.0762,0.1778 -0.24765,0.3175 -0.17145,0.1397 -0.4445,0.2286 -0.2667,0.08255 -0.65405,0.08255 -0.8255,0 -1.20015,-0.3175 -0.3683,-0.3175 -0.3683,-0.9398 h 0.66675 q 0,0.33655 0.2032,0.52705 0.20955,0.1905 0.6858,0.1905 0.2159,0 0.36195,-0.0381 0.14605,-0.0381 0.23495,-0.09525 0.09525,-0.05715 0.13335,-0.127 0.0381,-0.0762 0.04445,-0.14605 0.0063,-0.1778 -0.1651,-0.2667 -0.1651,-0.09525 -0.4191,-0.1524 -0.24765,-0.05715 -0.5461,-0.10795 -0.2921,-0.0508 -0.5461,-0.14605 -0.254,-0.09525 -0.42545,-0.26035 -0.1651,-0.17145 -0.1651,-0.46355 0,-0.2159 0.0762,-0.3937 0.0762,-0.18415 0.24765,-0.3175 0.17145,-0.13335 0.43815,-0.20955 0.27305,-0.0762 0.6604,-0.0762 0.3937,0 0.66675,0.0889 0.27305,0.0889 0.43815,0.24765 0.17145,0.15875 0.24765,0.38735 0.0762,0.22225 0.0762,0.48895 h -0.635 q -0.0127,-0.15875 -0.05715,-0.28575 -0.0381,-0.127 -0.13335,-0.2159 -0.09525,-0.0889 -0.24765,-0.13335 -0.1524,-0.0508 -0.37465,-0.0508 -0.2032,0 -0.3429,0.0381 -0.1397,0.03175 -0.2286,0.0889 -0.08255,0.05715 -0.12065,0.13335 -0.0381,0.0762 -0.0381,0.1524 0,0.15875 0.1651,0.2413 0.17145,0.0762 0.4191,0.13335 0.254,0.05715 0.5461,0.1143 0.2921,0.0508 0.53975,0.15875 0.254,0.1016 0.4191,0.28575 0.17145,0.1778 0.17145,0.4826 z"
         style="font-size:6.35px;text-align:start;text-anchor:start;fill:#009de0;fill-opacity:1;stroke-width:0.206782"
         id="path883" />
      <path
         d="m 98.922117,66.565433 q 0,0.1778 -0.08255,0.3556 -0.0762,0.1778 -0.24765,0.3175 -0.17145,0.1397 -0.4445,0.2286 -0.2667,0.08255 -0.65405,0.08255 -0.8255,0 -1.20015,-0.3175 -0.3683,-0.3175 -0.3683,-0.9398 h 0.66675 q 0,0.33655 0.2032,0.52705 0.20955,0.1905 0.6858,0.1905 0.2159,0 0.36195,-0.0381 0.14605,-0.0381 0.23495,-0.09525 0.09525,-0.05715 0.13335,-0.127 0.0381,-0.0762 0.04445,-0.14605 0.0063,-0.1778 -0.1651,-0.2667 -0.1651,-0.09525 -0.4191,-0.1524 -0.24765,-0.05715 -0.5461,-0.10795 -0.2921,-0.0508 -0.5461,-0.14605 -0.254,-0.09525 -0.42545,-0.26035 -0.1651,-0.17145 -0.1651,-0.46355 0,-0.2159 0.0762,-0.3937 0.0762,-0.18415 0.24765,-0.3175 0.17145,-0.13335 0.43815,-0.20955 0.27305,-0.0762 0.6604,-0.0762 0.3937,0 0.66675,0.0889 0.27305,0.0889 0.43815,0.24765 0.17145,0.15875 0.24765,0.38735 0.0762,0.22225 0.0762,0.48895 h -0.635 q -0.0127,-0.15875 -0.05715,-0.28575 -0.0381,-0.127 -0.13335,-0.2159 -0.09525,-0.0889 -0.24765,-0.13335 -0.1524,-0.0508 -0.37465,-0.0508 -0.2032,0 -0.3429,0.0381 -0.1397,0.03175 -0.2286,0.0889 -0.08255,0.05715 -0.12065,0.13335 -0.0381,0.0762 -0.0381,0.1524 0,0.15875 0.1651,0.2413 0.17145,0.0762 0.4191,0.13335 0.254,0.05715 0.5461,0.1143 0.2921,0.0508 0.53975,0.15875 0.254,0.1016 0.4191,0.28575 0.17145,0.1778 0.17145,0.4826 z"
         style="font-size:6.35px;text-align:start;text-anchor:start;fill:#009de0;fill-opacity:1;stroke-width:0.206782"
         id="path885" />
      <path
         d="m 36.103829,73.448162 v 2.328332 H 35.650862 V 73.448162 H 34.87193 v -0.380999 h 2.010831 v 0.380999 z"
         style="font-size:4.23333px;text-align:start;text-anchor:start;fill:#009de0;fill-opacity:1;stroke-width:0.206782"
         id="path887" />
      <path
         d="m 37.96648,73.981562 q -0.03387,0 -0.0635,-0.0042 -0.02963,-0.0042 -0.05927,-0.0042 -0.169333,0 -0.275167,0.04657 -0.105833,0.04233 -0.1651,0.122766 -0.05927,0.08043 -0.08043,0.1905 -0.02117,0.110067 -0.02117,0.2413 v 1.202266 h -0.452966 v -2.167465 h 0.2413 l 0.105833,0.300566 q 0.0254,-0.05503 0.0762,-0.110066 0.05503,-0.05927 0.1397,-0.105834 0.08467,-0.0508 0.2032,-0.08043 0.118533,-0.03387 0.2794,-0.03387 h 0.07197 v 0.402166 z"
         style="font-size:4.23333px;text-align:start;text-anchor:start;fill:#009de0;fill-opacity:1;stroke-width:0.206782"
         id="path889" />
      <path
         d="m 39.812201,75.776494 -0.09313,-0.325967 q -0.0381,0.0635 -0.1143,0.127 -0.07197,0.0635 -0.182033,0.1143 -0.105833,0.0508 -0.245533,0.08467 -0.1397,0.02963 -0.309033,0.02963 -0.173566,0 -0.325966,-0.0381 -0.1524,-0.04233 -0.2667,-0.122767 -0.1143,-0.08043 -0.182033,-0.203199 -0.0635,-0.127 -0.0635,-0.300567 0,-0.300566 0.2159,-0.444499 0.220133,-0.148167 0.685799,-0.194734 l 0.681566,-0.06773 q -0.0042,-0.118533 -0.03387,-0.207433 -0.0254,-0.09313 -0.0889,-0.156633 -0.0635,-0.0635 -0.169334,-0.09737 -0.105833,-0.03387 -0.270933,-0.03387 -0.1524,0 -0.249766,0.02963 -0.09737,0.02963 -0.156633,0.08467 -0.05927,0.05503 -0.08467,0.135467 -0.02117,0.08043 -0.02117,0.182033 l -0.440266,0.0042 q 0,-0.169334 0.0381,-0.313267 0.04233,-0.143933 0.148167,-0.249766 0.110066,-0.110067 0.292099,-0.169334 0.182033,-0.0635 0.4699,-0.0635 0.3302,0 0.529166,0.06773 0.2032,0.06773 0.309033,0.194733 0.105833,0.127 0.1397,0.3048 0.03387,0.1778 0.03387,0.397933 v 1.231899 z m -0.198967,-0.999066 -0.613833,0.06773 q -0.283633,0.03387 -0.393699,0.1016 -0.110067,0.0635 -0.110067,0.1905 0,0.148166 0.122767,0.232833 0.122766,0.08043 0.364066,0.08043 0.300566,0 0.465666,-0.160866 0.1651,-0.160867 0.1651,-0.4445 z"
         style="font-size:4.23333px;text-align:start;text-anchor:start;fill:#009de0;fill-opacity:1;stroke-width:0.206782"
         id="path891" />
      <path
         d="m 40.984832,73.088329 q 0,0.160867 -0.0889,0.2159 -0.08467,0.05503 -0.232833,0.05503 -0.1524,0 -0.245533,-0.05503 -0.0889,-0.05503 -0.0889,-0.2159 0,-0.1651 0.0889,-0.220133 0.09313,-0.05503 0.245533,-0.05503 0.148167,0 0.232833,0.05503 0.0889,0.05503 0.0889,0.220133 z m -0.550333,2.688165 v -2.167465 h 0.448733 v 2.167465 z"
         style="font-size:4.23333px;text-align:start;text-anchor:start;fill:#009de0;fill-opacity:1;stroke-width:0.206782"
         id="path893" />
      <path
         d="m 42.855962,75.776494 v -1.206499 q 0,-0.143934 -0.01693,-0.258233 -0.01693,-0.1143 -0.0762,-0.1905 -0.05503,-0.08043 -0.160866,-0.122767 -0.1016,-0.04233 -0.275167,-0.04233 -0.173566,0 -0.283633,0.04233 -0.105833,0.0381 -0.169333,0.118533 -0.05927,0.08043 -0.08467,0.194734 -0.02117,0.114299 -0.02117,0.258233 v 1.206499 h -0.452967 v -2.167465 h 0.245534 l 0.1016,0.3048 q 0.0254,-0.05503 0.08467,-0.1143 0.05927,-0.05927 0.1524,-0.105834 0.09737,-0.0508 0.232833,-0.08043 0.135467,-0.03387 0.321733,-0.03387 0.2667,0 0.4318,0.0762 0.169333,0.07197 0.258233,0.207434 0.09313,0.135466 0.127,0.325966 0.03387,0.1905 0.03387,0.4191 v 1.168399 z"
         style="font-size:4.23333px;text-align:start;text-anchor:start;fill:#009de0;fill-opacity:1;stroke-width:0.206782"
         id="path895" />
      <path
         d="m 44.25296,73.088329 q 0,0.160867 -0.0889,0.2159 -0.08467,0.05503 -0.232834,0.05503 -0.1524,0 -0.245533,-0.05503 -0.0889,-0.05503 -0.0889,-0.2159 0,-0.1651 0.0889,-0.220133 0.09313,-0.05503 0.245533,-0.05503 0.148167,0 0.232834,0.05503 0.0889,0.05503 0.0889,0.220133 z m -0.550332,2.688165 v -2.167465 h 0.448733 v 2.167465 z"
         style="font-size:4.23333px;text-align:start;text-anchor:start;fill:#009de0;fill-opacity:1;stroke-width:0.206782"
         id="path897" />
      <path
         d="m 46.124089,75.776494 v -1.206499 q 0,-0.143934 -0.01693,-0.258233 -0.01693,-0.1143 -0.0762,-0.1905 -0.05503,-0.08043 -0.160867,-0.122767 -0.1016,-0.04233 -0.275166,-0.04233 -0.173567,0 -0.283633,0.04233 -0.105834,0.0381 -0.169334,0.118533 -0.05927,0.08043 -0.08467,0.194734 -0.02117,0.114299 -0.02117,0.258233 v 1.206499 h -0.452966 v -2.167465 h 0.245533 l 0.1016,0.3048 q 0.0254,-0.05503 0.08467,-0.1143 0.05927,-0.05927 0.152399,-0.105834 0.09737,-0.0508 0.232834,-0.08043 0.135466,-0.03387 0.321733,-0.03387 0.266699,0 0.431799,0.0762 0.169333,0.07197 0.258233,0.207434 0.09313,0.135466 0.127,0.325966 0.03387,0.1905 0.03387,0.4191 v 1.168399 z"
         style="font-size:4.23333px;text-align:start;text-anchor:start;fill:#009de0;fill-opacity:1;stroke-width:0.206782"
         id="path899" />
      <path
         d="m 48.990053,76.022027 q 0,0.122766 -0.0508,0.2413 -0.04657,0.118533 -0.169333,0.211666 -0.118533,0.09313 -0.325966,0.1524 -0.2032,0.05927 -0.5207,0.05927 -0.325966,0 -0.537633,-0.0508 -0.207433,-0.0508 -0.334433,-0.148167 -0.122766,-0.09737 -0.173566,-0.2413 -0.04657,-0.1397 -0.04657,-0.321733 h 0.474133 q 0.0085,0.09313 0.02963,0.1651 0.0254,0.0762 0.0889,0.127 0.06773,0.05503 0.186267,0.08043 0.122766,0.02963 0.321733,0.02963 0.186266,0 0.300566,-0.0254 0.118534,-0.0254 0.182033,-0.06773 0.0635,-0.0381 0.08467,-0.0889 0.02117,-0.0508 0.02117,-0.09737 0,-0.0635 -0.04233,-0.105833 -0.04233,-0.04233 -0.118533,-0.07197 -0.0762,-0.02963 -0.182033,-0.0508 -0.1016,-0.01693 -0.224366,-0.0381 -0.186267,-0.02963 -0.381,-0.05503 -0.1905,-0.02963 -0.351367,-0.0762 -0.156633,-0.0508 -0.258233,-0.135467 -0.09737,-0.08467 -0.09737,-0.2286 0,-0.139699 0.1016,-0.220133 0.1016,-0.08043 0.266699,-0.122766 -0.186266,-0.09313 -0.258233,-0.245533 -0.06773,-0.1524 -0.06773,-0.300567 0,-0.1651 0.04233,-0.309033 0.04233,-0.143933 0.160867,-0.249766 0.118533,-0.105834 0.325966,-0.1651 0.207433,-0.0635 0.5334,-0.0635 h 0.952499 v 0.2159 l -0.3048,0.0889 q 0.1016,0.0508 0.169333,0.173566 0.07197,0.122767 0.07197,0.313267 0,0.169333 -0.04233,0.309033 -0.0381,0.139699 -0.148167,0.241299 -0.105833,0.1016 -0.300566,0.156634 -0.1905,0.05503 -0.491066,0.05503 -0.05503,0 -0.118534,0 -0.0635,-0.0042 -0.122766,-0.0127 -0.06773,-0.0085 -0.135467,-0.01693 -0.127,0.01693 -0.156633,0.0508 -0.0254,0.03387 -0.0254,0.06773 0,0.0762 0.148167,0.105833 0.148166,0.02963 0.507999,0.0762 0.173567,0.02117 0.351367,0.05503 0.182033,0.02963 0.330199,0.09313 0.148167,0.05927 0.2413,0.165099 0.09313,0.105834 0.09313,0.275167 z M 48.38892,74.383728 q 0,-0.0889 -0.02117,-0.160866 -0.01693,-0.07197 -0.0762,-0.127 -0.05503,-0.05503 -0.156633,-0.08467 -0.09737,-0.02963 -0.258233,-0.02963 -0.1524,0 -0.254,0.02963 -0.09737,0.02963 -0.156633,0.08467 -0.05503,0.0508 -0.0762,0.127 -0.02117,0.07197 -0.02117,0.160866 0,0.09737 0.02117,0.1778 0.02117,0.08043 0.0762,0.1397 0.05503,0.05503 0.152399,0.0889 0.1016,0.03387 0.262467,0.03387 0.1524,0 0.249766,-0.02963 0.1016,-0.03387 0.156634,-0.0889 0.05927,-0.05927 0.08043,-0.1397 0.02117,-0.08467 0.02117,-0.182033 z"
         style="font-size:4.23333px;text-align:start;text-anchor:start;fill:#009de0;fill-opacity:1;stroke-width:0.206782"
         id="path901" />
      <path
         d="m 52.634937,74.735095 q 0,0.224366 -0.06773,0.419099 -0.0635,0.194733 -0.211667,0.3429 -0.143933,0.143933 -0.376766,0.2286 -0.232833,0.08043 -0.567266,0.08043 -0.381,0 -0.6223,-0.110067 -0.241299,-0.114299 -0.380999,-0.304799 -0.1397,-0.1905 -0.194733,-0.440267 -0.0508,-0.249766 -0.0508,-0.529166 0,-0.2794 0.0508,-0.529166 0.05503,-0.249767 0.194733,-0.440266 0.1397,-0.1905 0.380999,-0.300567 0.245534,-0.1143 0.6223,-0.1143 0.334433,0 0.567266,0.0889 0.232833,0.08467 0.376766,0.232833 0.148167,0.143934 0.211667,0.338667 0.06773,0.1905 0.06773,0.402166 h -0.478366 q -0.0085,-0.143933 -0.05503,-0.2667 -0.04233,-0.122766 -0.131234,-0.211666 -0.0889,-0.09313 -0.228599,-0.143933 -0.135467,-0.05503 -0.3302,-0.05503 -0.2413,0 -0.3937,0.08043 -0.148166,0.0762 -0.232833,0.211666 -0.08467,0.135467 -0.118533,0.3175 -0.02963,0.182033 -0.02963,0.389466 0,0.207433 0.02963,0.389467 0.03387,0.182033 0.118533,0.317499 0.08467,0.131233 0.232833,0.211667 0.1524,0.0762 0.3937,0.0762 0.198966,0 0.334433,-0.0508 0.1397,-0.0508 0.224366,-0.1397 0.0889,-0.0889 0.131234,-0.211667 0.04657,-0.127 0.05503,-0.279399 h 0.478366 z"
         style="font-size:4.23333px;text-align:start;text-anchor:start;fill:#009de0;fill-opacity:1;stroke-width:0.206782"
         id="path903" />
      <path
         d="m 55.081801,74.692761 q 0,0.2159 -0.0508,0.4191 -0.04657,0.198966 -0.173566,0.3556 -0.122767,0.152399 -0.3302,0.245533 -0.207433,0.09313 -0.524933,0.09313 -0.3175,0 -0.524933,-0.09313 -0.207433,-0.09313 -0.3302,-0.245533 -0.118533,-0.156634 -0.169333,-0.3556 -0.04657,-0.2032 -0.04657,-0.4191 0,-0.2159 0.04657,-0.414866 0.0508,-0.198967 0.169333,-0.3556 0.122767,-0.156633 0.3302,-0.249766 0.211667,-0.09313 0.529166,-0.09313 0.3175,0 0.524933,0.09313 0.207433,0.09313 0.3302,0.249766 0.122767,0.156633 0.169333,0.3556 0.0508,0.198966 0.0508,0.414866 z m -0.461433,0 q 0,-0.1524 -0.0254,-0.287866 -0.02117,-0.135467 -0.0889,-0.237067 -0.06773,-0.1016 -0.1905,-0.160866 -0.118533,-0.05927 -0.309033,-0.05927 -0.190499,0 -0.309033,0.05927 -0.118533,0.05927 -0.186266,0.160866 -0.06773,0.1016 -0.09313,0.237067 -0.0254,0.135466 -0.0254,0.287866 0,0.1524 0.0254,0.287867 0.0254,0.135466 0.09313,0.237066 0.06773,0.1016 0.186266,0.160867 0.118534,0.05927 0.3048,0.05927 0.1905,0 0.309033,-0.05503 0.122767,-0.05927 0.1905,-0.160867 0.06773,-0.101599 0.09313,-0.237066 0.0254,-0.135467 0.0254,-0.2921 z"
         style="font-size:4.23333px;text-align:start;text-anchor:start;fill:#009de0;fill-opacity:1;stroke-width:0.206782"
         id="path905" />
      <path
         d="m 57.147661,75.776494 -0.09313,-0.313267 q -0.02963,0.05927 -0.0889,0.122767 -0.05927,0.05927 -0.156633,0.110066 -0.09737,0.04657 -0.232833,0.08043 -0.135466,0.02963 -0.3175,0.02963 -0.266699,0 -0.436033,-0.07197 -0.165099,-0.07197 -0.258233,-0.203199 -0.09313,-0.131234 -0.127,-0.3175 -0.03387,-0.186267 -0.03387,-0.414866 v -1.189566 h 0.444499 v 1.223432 q 0,0.148167 0.01693,0.258233 0.02117,0.110067 0.0762,0.186267 0.05927,0.07197 0.1651,0.110066 0.105833,0.0381 0.279399,0.0381 0.169333,0 0.2794,-0.0381 0.110067,-0.04233 0.169333,-0.118533 0.05927,-0.08043 0.08043,-0.194733 0.0254,-0.1143 0.0254,-0.262466 v -1.202266 h 0.4572 v 2.167465 z"
         style="font-size:4.23333px;text-align:start;text-anchor:start;fill:#009de0;fill-opacity:1;stroke-width:0.206782"
         id="path907" />
      <path
         d="m 58.951059,73.981562 q -0.03387,0 -0.0635,-0.0042 -0.02963,-0.0042 -0.05927,-0.0042 -0.169334,0 -0.275167,0.04657 -0.105833,0.04233 -0.1651,0.122766 -0.05927,0.08043 -0.08043,0.1905 -0.02117,0.110067 -0.02117,0.2413 v 1.202266 H 57.83346 v -2.167465 h 0.2413 l 0.105833,0.300566 q 0.0254,-0.05503 0.0762,-0.110066 0.05503,-0.05927 0.1397,-0.105834 0.08467,-0.0508 0.2032,-0.08043 0.118533,-0.03387 0.2794,-0.03387 h 0.07197 v 0.402166 z"
         style="font-size:4.23333px;text-align:start;text-anchor:start;fill:#009de0;fill-opacity:1;stroke-width:0.206782"
         id="path909" />
      <path
         d="m 60.987279,75.149961 q 0,0.118533 -0.05503,0.237066 -0.0508,0.118534 -0.1651,0.211667 -0.1143,0.09313 -0.296333,0.1524 -0.1778,0.05503 -0.436033,0.05503 -0.550333,0 -0.800099,-0.211666 -0.245534,-0.211667 -0.245534,-0.626533 h 0.4445 q 0,0.224366 0.135467,0.351366 0.139699,0.127 0.457199,0.127 0.143933,0 0.2413,-0.0254 0.09737,-0.0254 0.156633,-0.0635 0.0635,-0.0381 0.0889,-0.08467 0.0254,-0.0508 0.02963,-0.09737 0.0042,-0.118533 -0.110066,-0.1778 -0.110067,-0.0635 -0.2794,-0.1016 -0.1651,-0.0381 -0.364066,-0.07197 -0.194733,-0.03387 -0.364067,-0.09737 -0.169333,-0.0635 -0.283633,-0.173567 -0.110066,-0.1143 -0.110066,-0.309033 0,-0.143933 0.0508,-0.262466 0.0508,-0.122767 0.165099,-0.211667 0.1143,-0.0889 0.2921,-0.139699 0.182033,-0.0508 0.440267,-0.0508 0.262466,0 0.444499,0.05927 0.182033,0.05927 0.2921,0.1651 0.1143,0.105833 0.1651,0.258233 0.0508,0.148167 0.0508,0.325967 h -0.423333 q -0.0085,-0.105834 -0.0381,-0.1905 -0.0254,-0.08467 -0.0889,-0.143934 -0.0635,-0.05927 -0.1651,-0.0889 -0.1016,-0.03387 -0.249766,-0.03387 -0.135467,0 -0.2286,0.0254 -0.09313,0.02117 -0.1524,0.05927 -0.05503,0.0381 -0.08043,0.0889 -0.0254,0.0508 -0.0254,0.1016 0,0.105834 0.110066,0.160867 0.1143,0.0508 0.2794,0.0889 0.169333,0.0381 0.364066,0.0762 0.194733,0.03387 0.359833,0.105833 0.169334,0.06773 0.2794,0.1905 0.1143,0.118533 0.1143,0.321733 z"
         style="font-size:4.23333px;text-align:start;text-anchor:start;fill:#009de0;fill-opacity:1;stroke-width:0.206782"
         id="path911" />
      <path
         d="m 63.307137,75.111861 q -0.0127,0.1397 -0.07197,0.2667 -0.05927,0.122766 -0.173566,0.220133 -0.1143,0.09313 -0.296333,0.1524 -0.1778,0.05503 -0.4318,0.05503 -0.325966,0 -0.537633,-0.09313 -0.211666,-0.09313 -0.334433,-0.245533 -0.122766,-0.156634 -0.169333,-0.359833 -0.04657,-0.2032 -0.04657,-0.4191 0,-0.2159 0.04657,-0.414866 0.0508,-0.2032 0.169333,-0.3556 0.122767,-0.156633 0.3302,-0.245533 0.211666,-0.09313 0.537633,-0.09313 0.300566,0 0.495299,0.105833 0.198967,0.105833 0.309033,0.283633 0.1143,0.1778 0.148167,0.414866 0.0381,0.232833 0.01693,0.486833 h -1.583265 q 0.02117,0.2794 0.1651,0.436033 0.143933,0.1524 0.436033,0.1524 0.135466,0 0.224366,-0.02963 0.09313,-0.02963 0.1524,-0.0762 0.05927,-0.0508 0.0889,-0.1143 0.03387,-0.0635 0.0508,-0.127 z m -0.474133,-0.6096 q 0,-0.110066 -0.02963,-0.211666 -0.0254,-0.105833 -0.0889,-0.182033 -0.0635,-0.08043 -0.169334,-0.127 -0.105833,-0.0508 -0.258233,-0.0508 -0.160866,0 -0.266699,0.04657 -0.1016,0.04657 -0.169334,0.126999 -0.0635,0.0762 -0.09313,0.182034 -0.02963,0.105833 -0.0381,0.224366 h 1.113366 q 0,0 0,-0.0042 0,0 0,-0.0042 z"
         style="font-size:4.23333px;text-align:start;text-anchor:start;fill:#009de0;fill-opacity:1;stroke-width:0.206782"
         id="path913" />
    </g>
    <text
       xml:space="preserve"
       id="text837"
       style="line-height:1.25;font-family:ParalucentW00-Medium;font-size:10.58333333px;-inkscape-font-specification:ParalucentW00-Medium;white-space:pre;shape-inside:url(#rect839);" />
  </g>
</svg>
