<?xml version="1.0" encoding="UTF-8" standalone="no"?>
<!-- Generator: Adobe Illustrator 24.0.0, SVG Export Plug-In . SVG Version: 6.00 Build 0)  -->

<svg
   xmlns:dc="http://purl.org/dc/elements/1.1/"
   xmlns:cc="http://creativecommons.org/ns#"
   xmlns:rdf="http://www.w3.org/1999/02/22-rdf-syntax-ns#"
   xmlns:svg="http://www.w3.org/2000/svg"
   xmlns="http://www.w3.org/2000/svg"
   xmlns:sodipodi="http://sodipodi.sourceforge.net/DTD/sodipodi-0.dtd"
   xmlns:inkscape="http://www.inkscape.org/namespaces/inkscape"
   version="1.1"
   id="Camada_1"
   x="0px"
   y="0px"
   viewBox="0 0 255.99999 160"
   xml:space="preserve"
   sodipodi:docname="gwo-logo-borderless.svg"
   width="256"
   height="160"
   inkscape:version="0.92.4 (5da689c313, 2019-01-14)"><metadata
   id="metadata19"><rdf:RDF><cc:Work
       rdf:about=""><dc:format>image/svg+xml</dc:format><dc:type
         rdf:resource="http://purl.org/dc/dcmitype/StillImage" /><dc:title></dc:title></cc:Work></rdf:RDF></metadata><defs
   id="defs17" /><sodipodi:namedview
   pagecolor="#ffffff"
   bordercolor="#666666"
   borderopacity="1"
   objecttolerance="10"
   gridtolerance="10"
   guidetolerance="10"
   inkscape:pageopacity="0"
   inkscape:pageshadow="2"
   inkscape:window-width="1200"
   inkscape:window-height="669"
   id="namedview15"
   showgrid="false"
   fit-margin-top="0"
   fit-margin-left="0"
   fit-margin-right="0"
   fit-margin-bottom="0"
   inkscape:zoom="1.2347826"
   inkscape:cx="-51.380987"
   inkscape:cy="36.199999"
   inkscape:window-x="892"
   inkscape:window-y="135"
   inkscape:window-maximized="0"
   inkscape:current-layer="Camada_1" />
<style
   type="text/css"
   id="style2">
	.st0{fill:#003E6A;}
</style>
<g
   id="g12"
   transform="matrix(1.4849188,0,0,1.4849188,-42.023203,6.4965194)">
	<path
   class="st0"
   d="M 53.1,85 V 81.1 H 51 v 1.1 h 0.9 v 2 c -0.1,0.1 -0.2,0.1 -0.3,0.2 -0.1,0 -0.3,0.1 -0.5,0.1 -0.3,0 -0.5,-0.1 -0.7,-0.2 -0.2,-0.1 -0.4,-0.3 -0.5,-0.6 -0.1,-0.3 -0.2,-0.6 -0.3,-0.9 -0.1,-0.3 -0.1,-0.7 -0.1,-1.1 0,-0.4 0,-0.7 0.1,-1.1 0.1,-0.3 0.2,-0.6 0.3,-0.9 0.1,-0.3 0.3,-0.5 0.5,-0.6 0.2,-0.2 0.4,-0.2 0.7,-0.2 0.5,0 0.9,0.2 1.2,0.6 L 53,78.6 c -0.2,-0.3 -0.5,-0.5 -0.8,-0.7 -0.3,-0.2 -0.7,-0.2 -1.2,-0.2 -0.4,0 -0.8,0.1 -1.2,0.3 -0.3,0.2 -0.6,0.5 -0.9,0.8 -0.2,0.4 -0.4,0.8 -0.6,1.3 -0.1,0.5 -0.2,1 -0.2,1.6 0,0.6 0.1,1.1 0.2,1.6 0.1,0.5 0.3,0.9 0.6,1.3 0.2,0.4 0.6,0.6 0.9,0.8 0.4,0.2 0.8,0.3 1.2,0.3 0.4,0 0.8,-0.1 1.1,-0.2 0.5,-0.2 0.8,-0.3 1,-0.5 z m 5.3,0.5 V 84.3 H 56.3 V 77.9 H 55 v 7.6 z m 6,-5.5 c -0.1,-0.5 -0.3,-0.9 -0.5,-1.3 -0.2,-0.4 -0.5,-0.6 -0.9,-0.8 -0.3,-0.2 -0.7,-0.3 -1.1,-0.3 -0.4,0 -0.8,0.1 -1.2,0.3 -0.3,0.2 -0.6,0.5 -0.9,0.8 -0.2,0.4 -0.4,0.8 -0.5,1.3 -0.1,0.5 -0.2,1 -0.2,1.6 0,0.6 0.1,1.2 0.2,1.6 0.1,0.5 0.3,0.9 0.5,1.3 0.2,0.4 0.5,0.6 0.9,0.8 0.3,0.2 0.7,0.3 1.2,0.3 0.4,0 0.8,-0.1 1.1,-0.3 0.3,-0.2 0.6,-0.5 0.9,-0.8 0.2,-0.4 0.4,-0.8 0.5,-1.3 0.1,-0.5 0.2,-1 0.2,-1.6 0,-0.6 0,-1.1 -0.2,-1.6 z m -1.2,2.7 c -0.1,0.3 -0.1,0.6 -0.3,0.9 -0.1,0.3 -0.3,0.4 -0.4,0.6 -0.2,0.1 -0.4,0.2 -0.6,0.2 -0.2,0 -0.4,-0.1 -0.6,-0.2 -0.2,-0.1 -0.3,-0.3 -0.4,-0.6 -0.1,-0.3 -0.2,-0.5 -0.3,-0.9 -0.1,-0.3 -0.1,-0.7 -0.1,-1.1 0,-0.4 0,-0.8 0.1,-1.1 0.1,-0.3 0.1,-0.6 0.3,-0.9 0.1,-0.2 0.3,-0.4 0.4,-0.6 0.2,-0.1 0.4,-0.2 0.6,-0.2 0.2,0 0.4,0.1 0.6,0.2 0.2,0.1 0.3,0.3 0.4,0.6 0.1,0.2 0.2,0.5 0.3,0.9 0.1,0.3 0.1,0.7 0.1,1.1 0,0.4 0,0.8 -0.1,1.1 z m 7.5,-0.1 C 70.6,82.4 70.5,82.2 70.4,82 70.3,81.8 70.1,81.7 70,81.6 69.9,81.5 69.7,81.5 69.6,81.4 v 0 c 0.3,-0.1 0.5,-0.3 0.7,-0.6 0.2,-0.3 0.3,-0.6 0.3,-1.1 0,-0.4 -0.1,-0.7 -0.2,-1 -0.1,-0.2 -0.3,-0.4 -0.5,-0.6 -0.2,-0.1 -0.4,-0.2 -0.7,-0.3 -0.3,-0.1 -0.5,-0.1 -0.7,-0.1 h -2 v 7.6 h 2.3 c 0.2,0 0.5,0 0.7,-0.1 0.3,-0.1 0.5,-0.2 0.7,-0.4 0.2,-0.2 0.4,-0.4 0.5,-0.7 0.1,-0.3 0.2,-0.6 0.2,-1 -0.1,-0.1 -0.1,-0.3 -0.2,-0.5 z m -1.4,-2.2 c -0.1,0.1 -0.1,0.2 -0.2,0.3 -0.1,0.1 -0.2,0.1 -0.3,0.2 -0.1,0 -0.3,0.1 -0.4,0.1 h -0.7 v -2.1 h 0.7 c 0.1,0 0.3,0 0.4,0.1 0.1,0 0.2,0.1 0.3,0.2 0.1,0.1 0.2,0.2 0.2,0.3 0.1,0.1 0.1,0.3 0.1,0.5 0,0.2 -0.1,0.3 -0.1,0.4 z m 0.2,3.3 c -0.1,0.1 -0.1,0.3 -0.2,0.4 -0.1,0.1 -0.2,0.2 -0.4,0.2 -0.1,0 -0.3,0.1 -0.4,0.1 H 67.7 V 82 h 0.8 c 0.1,0 0.3,0 0.4,0.1 0.1,0 0.3,0.1 0.4,0.2 0.1,0.1 0.2,0.2 0.3,0.4 0.1,0.2 0.1,0.3 0.1,0.6 -0.1,0.1 -0.2,0.3 -0.2,0.4 z m 7.7,1.8 -1.9,-7.6 h -1.6 l -1.9,7.6 h 1.3 l 0.4,-1.6 h 2 l 0.4,1.6 z M 75.3,82.8 H 73.6 L 74.4,79 v 0 z m 6.6,2.7 v -1.2 h -2.1 v -6.4 h -1.3 v 7.6 z m 11,-7.7 h -1.3 l -1,5.9 v 0 l -1.1,-5.9 h -1.4 l -1,5.9 v 0 l -1,-5.9 h -1.3 l 1.5,7.6 h 1.5 l 1.1,-5.7 v 0 l 1.1,5.7 h 1.5 z m 2.8,7.7 v -7.6 h -1.3 v 7.6 z m 6.8,0 v -7.6 h -1.1 v 5.4 0 l -2.1,-5.4 h -1.5 v 7.6 H 99 v -5.4 0 l 2.2,5.4 z m 6.3,-6.7 c -0.5,-0.7 -1.2,-1 -2.2,-1 h -1.9 v 7.6 h 1.9 c 1,0 1.7,-0.3 2.2,-1 0.5,-0.7 0.8,-1.6 0.8,-2.8 -0.1,-1.2 -0.3,-2.1 -0.8,-2.8 z m -0.7,4 c -0.1,0.3 -0.2,0.6 -0.4,0.8 -0.2,0.2 -0.3,0.4 -0.5,0.5 -0.2,0.1 -0.4,0.2 -0.7,0.2 h -0.6 V 79 h 0.6 c 0.2,0 0.5,0.1 0.7,0.2 0.2,0.1 0.4,0.3 0.5,0.5 0.2,0.2 0.3,0.5 0.4,0.8 0.1,0.3 0.1,0.7 0.1,1.2 0,0.4 0,0.8 -0.1,1.1 z M 118.9,80 c -0.1,-0.5 -0.3,-0.9 -0.5,-1.3 -0.2,-0.4 -0.5,-0.6 -0.9,-0.8 -0.3,-0.2 -0.7,-0.3 -1.1,-0.3 -0.4,0 -0.8,0.1 -1.2,0.3 -0.3,0.2 -0.6,0.5 -0.9,0.8 -0.2,0.4 -0.4,0.8 -0.5,1.3 -0.1,0.5 -0.2,1 -0.2,1.6 0,0.6 0.1,1.2 0.2,1.6 0.1,0.5 0.3,0.9 0.5,1.3 0.2,0.4 0.5,0.6 0.9,0.8 0.3,0.2 0.7,0.3 1.2,0.3 0.4,0 0.8,-0.1 1.1,-0.3 0.3,-0.2 0.6,-0.5 0.9,-0.8 0.2,-0.4 0.4,-0.8 0.5,-1.3 0.1,-0.5 0.2,-1 0.2,-1.6 0,-0.6 -0.1,-1.1 -0.2,-1.6 z m -1.2,2.7 c -0.1,0.3 -0.1,0.6 -0.3,0.9 -0.1,0.3 -0.3,0.4 -0.4,0.6 -0.2,0.1 -0.4,0.2 -0.6,0.2 -0.2,0 -0.4,-0.1 -0.6,-0.2 -0.2,-0.1 -0.3,-0.3 -0.4,-0.6 -0.1,-0.3 -0.2,-0.5 -0.3,-0.9 C 115,82.4 115,82 115,81.6 c 0,-0.4 0,-0.8 0.1,-1.1 0.1,-0.3 0.1,-0.6 0.3,-0.9 0.1,-0.2 0.3,-0.4 0.4,-0.6 0.2,-0.1 0.4,-0.2 0.6,-0.2 0.2,0 0.4,0.1 0.6,0.2 0.2,0.1 0.3,0.3 0.4,0.6 0.1,0.2 0.2,0.5 0.3,0.9 0.1,0.3 0.1,0.7 0.1,1.1 -0.1,0.4 -0.1,0.8 -0.1,1.1 z m 7.6,2.8 -1.4,-3.5 c 0.1,0 0.3,-0.1 0.4,-0.2 0.1,-0.1 0.3,-0.2 0.4,-0.4 0.1,-0.2 0.2,-0.4 0.3,-0.6 0.1,-0.2 0.1,-0.5 0.1,-0.8 0,-0.4 -0.1,-0.7 -0.2,-1 -0.1,-0.3 -0.3,-0.5 -0.4,-0.7 -0.2,-0.2 -0.4,-0.3 -0.7,-0.4 -0.3,-0.1 -0.6,-0.1 -0.9,-0.1 h -2.2 v 7.6 h 1.2 v -3.3 h 0.7 l 1.2,3.3 h 1.5 z M 123.6,81 c -0.2,0.2 -0.5,0.3 -0.8,0.3 h -0.7 V 79 h 0.7 c 0.1,0 0.3,0 0.4,0.1 0.1,0 0.2,0.1 0.4,0.2 0.1,0.1 0.2,0.2 0.3,0.4 0.1,0.2 0.1,0.3 0.1,0.6 -0.1,0.2 -0.2,0.5 -0.4,0.7 z m 7.8,4 v -3.9 h -2.1 v 1.1 h 0.9 v 2 c -0.1,0.1 -0.2,0.1 -0.3,0.2 -0.1,0 -0.3,0.1 -0.5,0.1 -0.3,0 -0.5,-0.1 -0.7,-0.2 -0.2,-0.1 -0.4,-0.3 -0.5,-0.6 -0.1,-0.3 -0.2,-0.6 -0.3,-0.9 -0.1,-0.3 -0.1,-0.7 -0.1,-1.1 0,-0.4 0,-0.7 0.1,-1.1 0.1,-0.3 0.2,-0.6 0.3,-0.9 0.1,-0.3 0.3,-0.5 0.5,-0.6 0.2,-0.2 0.4,-0.2 0.7,-0.2 0.5,0 0.9,0.2 1.2,0.6 l 0.7,-0.9 c -0.2,-0.3 -0.5,-0.5 -0.8,-0.7 -0.3,-0.2 -0.7,-0.2 -1.2,-0.2 -0.4,0 -0.8,0.1 -1.2,0.3 -0.3,0.2 -0.6,0.5 -0.9,0.8 -0.2,0.4 -0.4,0.8 -0.6,1.3 -0.1,0.5 -0.2,1 -0.2,1.6 0,0.6 0.1,1.1 0.2,1.6 0.1,0.5 0.3,0.9 0.6,1.3 0.2,0.4 0.6,0.6 0.9,0.8 0.4,0.2 0.8,0.3 1.2,0.3 0.4,0 0.8,-0.1 1.1,-0.2 0.5,-0.2 0.8,-0.3 1,-0.5 z m 6.6,0.5 -1.9,-7.6 h -1.6 l -1.9,7.6 h 1.3 l 0.4,-1.6 h 2 l 0.4,1.6 z m -1.9,-2.7 h -1.7 l 0.8,-3.8 v 0 z m 8,2.7 V 77.9 H 143 v 5.4 0 l -2.1,-5.4 h -1.5 v 7.6 h 1.2 v -5.4 0 l 2.2,5.4 z m 3.4,0 v -7.6 h -1.3 v 7.6 z m 5.8,-7.1 c -0.2,-0.2 -0.5,-0.4 -0.8,-0.6 -0.3,-0.1 -0.7,-0.2 -1,-0.2 -0.3,0 -0.5,0 -0.8,0.1 -0.3,0.1 -0.5,0.2 -0.7,0.4 -0.2,0.2 -0.4,0.4 -0.5,0.7 -0.1,0.3 -0.2,0.6 -0.2,1 0,0.3 0,0.6 0.1,0.8 0.1,0.2 0.2,0.4 0.3,0.6 0.1,0.2 0.3,0.3 0.5,0.4 0.2,0.1 0.4,0.2 0.6,0.3 0.3,0.2 0.6,0.3 0.8,0.5 0.2,0.2 0.3,0.5 0.3,0.8 0,0.3 -0.1,0.6 -0.3,0.8 -0.2,0.2 -0.4,0.3 -0.7,0.3 -0.2,0 -0.5,-0.1 -0.7,-0.2 -0.2,-0.1 -0.4,-0.3 -0.6,-0.5 l -0.7,0.9 c 0.2,0.3 0.5,0.5 0.9,0.6 0.4,0.2 0.8,0.2 1.2,0.2 0.3,0 0.6,-0.1 0.8,-0.2 0.3,-0.1 0.5,-0.2 0.7,-0.4 0.2,-0.2 0.4,-0.4 0.5,-0.7 0.1,-0.3 0.2,-0.6 0.2,-1 0,-0.3 0,-0.6 -0.2,-0.8 -0.1,-0.2 -0.2,-0.4 -0.4,-0.6 -0.2,-0.2 -0.3,-0.3 -0.5,-0.4 -0.2,-0.1 -0.4,-0.2 -0.6,-0.3 -0.3,-0.2 -0.6,-0.3 -0.8,-0.5 -0.2,-0.2 -0.3,-0.4 -0.3,-0.7 0,-0.2 0,-0.3 0.1,-0.5 0.1,-0.1 0.1,-0.2 0.2,-0.3 0.1,-0.1 0.2,-0.1 0.3,-0.2 0.1,0 0.2,-0.1 0.4,-0.1 0.4,0 0.8,0.2 1.1,0.5 z m 6.3,7.1 -1.9,-7.6 h -1.6 l -1.9,7.6 h 1.3 l 0.4,-1.6 h 2 l 0.4,1.6 z m -1.9,-2.7 H 156 l 0.8,-3.8 v 0 z m 6.4,-3.9 V 77.8 H 160 v 1.1 h 1.4 v 6.5 h 1.3 v -6.5 z m 2.6,6.6 v -7.6 h -1.3 v 7.6 z m 7,-5.5 c -0.1,-0.5 -0.3,-0.9 -0.5,-1.3 -0.2,-0.4 -0.5,-0.6 -0.9,-0.8 -0.3,-0.2 -0.7,-0.3 -1.1,-0.3 -0.4,0 -0.8,0.1 -1.2,0.3 -0.3,0.2 -0.6,0.5 -0.9,0.8 -0.2,0.4 -0.4,0.8 -0.5,1.3 -0.1,0.5 -0.2,1 -0.2,1.6 0,0.6 0.1,1.2 0.2,1.6 0.1,0.5 0.3,0.9 0.5,1.3 0.2,0.4 0.5,0.6 0.9,0.8 0.3,0.2 0.7,0.3 1.2,0.3 0.4,0 0.8,-0.1 1.1,-0.3 0.3,-0.2 0.6,-0.5 0.9,-0.8 0.2,-0.4 0.4,-0.8 0.5,-1.3 0.1,-0.5 0.2,-1 0.2,-1.6 0,-0.6 0,-1.1 -0.2,-1.6 z m -1.2,2.7 c -0.1,0.3 -0.1,0.6 -0.3,0.9 -0.1,0.3 -0.3,0.4 -0.4,0.6 -0.2,0.1 -0.4,0.2 -0.6,0.2 -0.2,0 -0.4,-0.1 -0.6,-0.2 -0.2,-0.1 -0.3,-0.3 -0.4,-0.6 -0.1,-0.3 -0.2,-0.5 -0.3,-0.9 -0.1,-0.3 -0.1,-0.7 -0.1,-1.1 0,-0.4 0,-0.8 0.1,-1.1 0.1,-0.3 0.1,-0.6 0.3,-0.9 0.1,-0.2 0.3,-0.4 0.4,-0.6 0.2,-0.1 0.4,-0.2 0.6,-0.2 0.2,0 0.4,0.1 0.6,0.2 0.2,0.1 0.3,0.3 0.4,0.6 0.1,0.2 0.2,0.5 0.3,0.9 0.1,0.3 0.1,0.7 0.1,1.1 0,0.4 0,0.8 -0.1,1.1 z m 7.9,2.8 v -7.6 h -1.1 v 5.4 0 l -2.1,-5.4 h -1.5 v 7.6 h 1.2 v -5.4 0 l 2.2,5.4 z"
   id="path4"
   inkscape:connector-curvature="0"
   style="fill:#003e6a" />
	<path
   class="st0"
   d="m 72.9,36.1 v 24 c -1.2,0.7 -2.5,1.4 -4.1,1.9 -1.5,0.6 -3.1,1 -4.7,1.4 -1.6,0.4 -3.3,0.7 -5,0.9 -1.7,0.2 -3.2,0.3 -4.7,0.3 -4.1,0 -7.8,-0.7 -11,-2.1 -3.2,-1.4 -6,-3.2 -8.2,-5.6 -2.2,-2.3 -3.9,-5.1 -5.1,-8.2 -1.2,-3.1 -1.8,-6.4 -1.8,-9.8 0,-3.6 0.6,-7 1.9,-10.1 1.3,-3.1 3,-5.8 5.2,-8.1 2.2,-2.3 4.9,-4.1 8,-5.4 3.1,-1.3 6.5,-2 10.3,-2 4.5,0 8.2,0.6 11,1.7 2.8,1.1 5.2,2.7 7.2,4.6 l -4.7,5 c -2,-1.9 -4.2,-3.3 -6.4,-4 -2.2,-0.8 -4.6,-1.1 -7.1,-1.1 -2.8,0 -5.3,0.5 -7.6,1.5 -2.2,1 -4.2,2.4 -5.8,4.2 -1.6,1.7 -2.8,3.8 -3.7,6.2 -0.9,2.4 -1.3,4.9 -1.3,7.5 0,2.8 0.5,5.3 1.4,7.7 1,2.4 2.3,4.4 4,6.2 1.7,1.7 3.7,3.1 6,4.1 2.3,1 4.8,1.5 7.5,1.5 2.3,0 4.6,-0.2 6.6,-0.7 2.1,-0.4 3.9,-1.1 5.3,-1.9 V 42.3 H 55.4 v -6.2 z"
   id="path6"
   inkscape:connector-curvature="0"
   style="fill:#003e6a" />
	<polygon
   class="st0"
   points="144.8,14.6 130.6,63.3 123.6,63.3 111.8,23.5 111.7,23.5 100,63.3 93,63.3 78.7,14.6 85.6,14.6 96.4,53.5 96.5,53.5 108,14.6 115.5,14.6 127,53.5 127.1,53.5 137.9,14.6 "
   id="polygon8"
   style="fill:#003e6a" />
	<path
   class="st0"
   d="m 200.7,39 c 0,-14.1 -11.4,-25.5 -25.5,-25.5 -14.1,0 -25.5,11.4 -25.5,25.5 0,14.1 11.4,25.5 25.5,25.5 C 189.3,64.4 200.7,53 200.7,39 Z m -27.5,0.6 -3.7,2.2 -13.4,0.8 -0.1,-0.5 17,-3.5 z m 9.1,-19 -5.9,16.3 -0.9,-0.3 v -4.3 l 6.3,-11.8 z m 6.1,32.4 -0.4,0.3 -11.8,-12.6 0.7,-0.6 3.8,2 z"
   id="path10"
   inkscape:connector-curvature="0"
   style="fill:#003e6a" />
</g>
</svg>