<?xml version="1.0" encoding="UTF-8" standalone="no"?>
<svg
   xmlns:dc="http://purl.org/dc/elements/1.1/"
   xmlns:cc="http://creativecommons.org/ns#"
   xmlns:rdf="http://www.w3.org/1999/02/22-rdf-syntax-ns#"
   xmlns:svg="http://www.w3.org/2000/svg"
   xmlns="http://www.w3.org/2000/svg"
   xmlns:sodipodi="http://sodipodi.sourceforge.net/DTD/sodipodi-0.dtd"
   xmlns:inkscape="http://www.inkscape.org/namespaces/inkscape"
   version="1.1"
   id="svg2"
   xml:space="preserve"
   width="256"
   height="160"
   viewBox="0 0 256 160"
   sodipodi:docname="the-logo-256x160.svg"
   inkscape:version="1.0.1 (3bc2e813f5, 2020-09-07)"
   inkscape:export-filename="C:\Users\Chris\Google Drive\Documents\Work\Offshore\Training-THE\THE Logo Final\the-logo-www.png"
   inkscape:export-xdpi="15.477774"
   inkscape:export-ydpi="15.477774"><metadata
     id="metadata8"><rdf:RDF><cc:Work
         rdf:about=""><dc:format>image/svg+xml</dc:format><dc:type
           rdf:resource="http://purl.org/dc/dcmitype/StillImage" /><dc:title></dc:title></cc:Work></rdf:RDF></metadata><defs
     id="defs6"><clipPath
       clipPathUnits="userSpaceOnUse"
       id="clipPath24"><path
         d="m 89.28,385.578 c 1.784,-3.613 3.885,-7.222 5.668,-10.835 v 0 c 7.6,-0.019 15.198,-0.04 22.797,-0.059 v 0 c -0.194,-30.448 -0.389,-60.897 -0.584,-91.345 v 0 c 5.086,2.574 10.171,5.149 15.256,7.724 v 0 c -0.578,27.873 -1.157,55.747 -1.734,83.621 v 0 c 8.13,0.019 16.263,0.04 24.393,0.059 v 0 c 2.114,3.687 3.586,7.148 5.7,10.835 v 0 c -11.947,-0.037 -23.811,-0.019 -35.676,0 v 0 c -6.905,0.01 -13.808,0.021 -20.728,0.021 v 0 c -5.02,0 -10.05,-0.005 -15.092,-0.021"
         id="path22" /></clipPath><linearGradient
       x1="0"
       y1="0"
       x2="1"
       y2="0"
       gradientUnits="userSpaceOnUse"
       gradientTransform="matrix(0,102.26085,102.26085,0,125.028,283.33884)"
       spreadMethod="pad"
       id="linearGradient36"><stop
         style="stop-opacity:1;stop-color:#1e3d89"
         offset="0"
         id="stop30" /><stop
         style="stop-opacity:1;stop-color:#1e3d89"
         offset="0.00537634"
         id="stop32" /><stop
         style="stop-opacity:1;stop-color:#038ac5"
         offset="1"
         id="stop34" /></linearGradient><clipPath
       clipPathUnits="userSpaceOnUse"
       id="clipPath46"><path
         d="m 146.315,315.977 h 7.86 v 8.94 h -7.86 z"
         id="path44" /></clipPath><linearGradient
       x1="0"
       y1="0"
       x2="1"
       y2="0"
       gradientUnits="userSpaceOnUse"
       gradientTransform="matrix(0,8.9394531,8.9394531,0,150.24463,315.97751)"
       spreadMethod="pad"
       id="linearGradient58"><stop
         style="stop-opacity:1;stop-color:#1e3d89"
         offset="0"
         id="stop52" /><stop
         style="stop-opacity:1;stop-color:#1e3d89"
         offset="0.00537634"
         id="stop54" /><stop
         style="stop-opacity:1;stop-color:#038ac5"
         offset="1"
         id="stop56" /></linearGradient><clipPath
       clipPathUnits="userSpaceOnUse"
       id="clipPath68"><path
         d="m 210.038,385.856 v -28.519 h -27.932 v 28.519 h -13.035 v -69.879 h 13.035 v 29.893 h 27.932 v -29.893 h 13.035 v 69.879 z"
         id="path66" /></clipPath><linearGradient
       x1="0"
       y1="0"
       x2="1"
       y2="0"
       gradientUnits="userSpaceOnUse"
       gradientTransform="matrix(0,69.878906,69.878906,0,196.07227,315.97751)"
       spreadMethod="pad"
       id="linearGradient80"><stop
         style="stop-opacity:1;stop-color:#1e3d89"
         offset="0"
         id="stop74" /><stop
         style="stop-opacity:1;stop-color:#1e3d89"
         offset="0.00537634"
         id="stop76" /><stop
         style="stop-opacity:1;stop-color:#038ac5"
         offset="1"
         id="stop78" /></linearGradient><clipPath
       clipPathUnits="userSpaceOnUse"
       id="clipPath90"><path
         d="m 230.024,315.977 h 7.86 v 8.94 h -7.86 z"
         id="path88" /></clipPath><linearGradient
       x1="0"
       y1="0"
       x2="1"
       y2="0"
       gradientUnits="userSpaceOnUse"
       gradientTransform="matrix(0,8.9394531,8.9394531,0,233.95361,315.97751)"
       spreadMethod="pad"
       id="linearGradient102"><stop
         style="stop-opacity:1;stop-color:#1e3d89"
         offset="0"
         id="stop96" /><stop
         style="stop-opacity:1;stop-color:#1e3d89"
         offset="0.00537634"
         id="stop98" /><stop
         style="stop-opacity:1;stop-color:#038ac5"
         offset="1"
         id="stop100" /></linearGradient><clipPath
       clipPathUnits="userSpaceOnUse"
       id="clipPath112"><path
         d="m 252.78,385.856 v -69.879 h 48.905 v 11.467 h -35.87 v 18.426 h 31.46 v 11.467 h -31.46 v 17.052 h 35.479 v 11.467 z"
         id="path110" /></clipPath><linearGradient
       x1="0"
       y1="0"
       x2="1"
       y2="0"
       gradientUnits="userSpaceOnUse"
       gradientTransform="matrix(0,69.878906,69.878906,0,277.23291,315.97751)"
       spreadMethod="pad"
       id="linearGradient124"><stop
         style="stop-opacity:1;stop-color:#1e3d89"
         offset="0"
         id="stop118" /><stop
         style="stop-opacity:1;stop-color:#1e3d89"
         offset="0.00537634"
         id="stop120" /><stop
         style="stop-opacity:1;stop-color:#038ac5"
         offset="1"
         id="stop122" /></linearGradient><clipPath
       clipPathUnits="userSpaceOnUse"
       id="clipPath134"><path
         d="m 306.873,315.977 h 7.861 v 8.94 h -7.861 z"
         id="path132" /></clipPath><linearGradient
       x1="0"
       y1="0"
       x2="1"
       y2="0"
       gradientUnits="userSpaceOnUse"
       gradientTransform="matrix(0,8.9394531,8.9394531,0,310.80322,315.97751)"
       spreadMethod="pad"
       id="linearGradient146"><stop
         style="stop-opacity:1;stop-color:#1e3d89"
         offset="0"
         id="stop140" /><stop
         style="stop-opacity:1;stop-color:#1e3d89"
         offset="0.00537634"
         id="stop142" /><stop
         style="stop-opacity:1;stop-color:#038ac5"
         offset="1"
         id="stop144" /></linearGradient><clipPath
       clipPathUnits="userSpaceOnUse"
       id="clipPath156"><path
         d="m 501.587,300.203 c 0,-2.268 1.622,-3.628 4.247,-4.558 v 0 c 2.172,-0.836 3.031,-1.695 3.031,-3.199 v 0 c 0,-1.622 -1.241,-2.744 -3.365,-2.744 v 0 c -1.432,0 -2.792,0.478 -3.723,1.05 v 0 l -0.525,-1.742 c 0.859,-0.573 2.554,-1.025 4.105,-1.025 v 0 c 3.795,0 5.632,2.147 5.632,4.628 v 0 c 0,2.364 -1.385,3.676 -4.105,4.725 v 0 c -2.219,0.86 -3.197,1.6 -3.197,3.104 v 0 c 0,1.097 0.834,2.41 3.031,2.41 v 0 c 1.454,0 2.529,-0.478 3.055,-0.764 v 0 l 0.572,1.694 c -0.716,0.406 -1.91,0.788 -3.556,0.788 v 0 c -3.126,0 -5.202,-1.861 -5.202,-4.367 m -28.781,0.405 c 0,-1.145 0.5,-2.314 1.336,-3.365 v 0 -0.071 c -1.837,-1.002 -3.15,-2.506 -3.15,-4.702 v 0 c 0,-2.41 1.814,-4.51 4.94,-4.51 v 0 c 1.766,0 3.317,0.548 4.7,1.838 v 0 c 0.622,-0.669 1.052,-1.122 1.504,-1.576 v 0 h 2.482 c -0.954,1.027 -1.789,1.933 -2.648,2.841 v 0 c 1.193,1.407 1.884,3.412 2.315,5.941 v 0 h -1.91 c -0.31,-2.027 -0.811,-3.579 -1.551,-4.7 v 0 c -1.026,1.145 -2.553,2.91 -3.914,4.486 v 0 0.071 c 2.554,1.266 3.533,2.602 3.533,4.296 v 0 c 0,2.076 -1.552,3.413 -3.556,3.413 v 0 c -2.673,0 -4.081,-2.004 -4.081,-3.962 m 1.909,0.192 c 0,1.24 0.692,2.338 2.028,2.338 v 0 c 1.313,0 1.862,-1.098 1.862,-2.076 v 0 c 0,-1.361 -1.051,-2.22 -2.673,-3.15 v 0 c -0.692,0.858 -1.217,1.742 -1.217,2.888 m -1.719,-8.019 c 0,1.694 1.218,2.72 2.076,3.27 v 0 c 1.79,-2.053 3.58,-4.01 4.534,-5.059 v 0 c -0.763,-0.837 -1.932,-1.457 -3.316,-1.457 v 0 c -1.933,0 -3.294,1.408 -3.294,3.246 m 126.674,11.527 -2.316,-4.439 c -0.62,-1.218 -1.169,-2.268 -1.622,-3.317 v 0 h -0.047 c -0.502,1.121 -0.979,2.099 -1.599,3.317 v 0 l -2.268,4.439 h -2.362 l 5.083,-9.26 v -6.826 h 2.1 v 6.85 l 5.393,9.236 z m -28.328,0 v -1.767 h 4.892 v -14.319 h 2.101 v 14.319 h 4.916 v 1.767 z m -15.535,0 v -16.086 h 9.045 v 1.743 h -6.969 v 5.798 h 6.252 v 1.719 h -6.252 v 5.084 h 6.61 v 1.742 z m -16.873,0 v -16.086 h 2.077 v 7.279 h 6.085 v 1.719 h -6.085 v 5.346 h 6.587 v 1.742 z m -15.607,0 -5.466,-16.086 h 2.148 l 1.671,5.06 h 5.704 l 1.718,-5.06 h 2.219 l -5.489,16.086 z m 0.358,-4.749 c 0.309,0.978 0.572,1.956 0.811,2.91 v 0 h 0.047 c 0.239,-0.93 0.477,-1.884 0.836,-2.935 v 0 l 1.575,-4.63 h -4.844 z m -72.882,4.749 v -6.73 h -7.781 v 6.73 h -2.076 v -16.086 h 2.076 v 7.541 h 7.781 v -7.541 h 2.099 v 16.086 z m -28.805,0 v -1.767 h 4.892 v -14.319 h 2.1 v 14.319 h 4.916 v 1.767 z m -12.577,0 v -16.086 h 8.949 v 1.743 h -6.873 v 14.343 z m -15.607,0 -5.466,-16.086 h 2.148 l 1.671,5.06 h 5.703 l 1.719,-5.06 h 2.22 l -5.49,16.086 z m 0.358,-4.749 c 0.31,0.978 0.573,1.956 0.811,2.91 v 0 h 0.048 c 0.238,-0.93 0.477,-1.884 0.835,-2.935 v 0 l 1.576,-4.63 h -4.845 z m -21.599,4.749 v -16.086 h 9.045 v 1.743 h -6.969 v 5.798 h 6.253 v 1.719 h -6.253 v 5.084 h 6.612 v 1.742 z m -10.953,0 v -6.73 h -7.78 v 6.73 h -2.076 v -16.086 h 2.076 v 7.541 h 7.78 v -7.541 h 2.1 v 16.086 z"
         id="path154" /></clipPath><linearGradient
       x1="0"
       y1="0"
       x2="1"
       y2="0"
       gradientUnits="userSpaceOnUse"
       gradientTransform="matrix(270.83496,0,0,-270.83496,349.9502,295.22702)"
       spreadMethod="pad"
       id="linearGradient168"><stop
         style="stop-opacity:1;stop-color:#1e3d89"
         offset="0"
         id="stop162" /><stop
         style="stop-opacity:1;stop-color:#1e3d89"
         offset="0.00537634"
         id="stop164" /><stop
         style="stop-opacity:1;stop-color:#038ac5"
         offset="1"
         id="stop166" /></linearGradient><clipPath
       clipPathUnits="userSpaceOnUse"
       id="clipPath178"><path
         d="m 446.58,360.053 h -0.1 c -3.122,4.782 -7.611,7.418 -14.248,7.418 v 0 c -5.855,0 -10.736,-2.44 -14.151,-7.027 v 0 h -0.196 v 6.051 h -11.514 v -49.967 h 11.906 v 29.373 c 0,8.298 5.466,11.128 9.662,11.128 v 0 c 7.22,0 9.077,-5.272 9.077,-11.615 v 0 -28.886 h 11.908 v 28.789 c 0,6.538 2.827,11.712 9.562,11.712 v 0 c 6.733,0 9.077,-4.684 9.077,-11.42 v 0 -29.081 h 11.906 v 33.377 c 0,12.198 -8.198,17.566 -17.47,17.566 v 0 c -6.833,0 -11.906,-2.93 -15.419,-7.418"
         id="path176" /></clipPath><linearGradient
       x1="0"
       y1="0"
       x2="1"
       y2="0"
       gradientUnits="userSpaceOnUse"
       gradientTransform="matrix(8.5085955,51.051697,51.051697,-8.5085955,441.79565,334.76721)"
       spreadMethod="pad"
       id="linearGradient190"><stop
         style="stop-opacity:1;stop-color:#2c2829"
         offset="0"
         id="stop184" /><stop
         style="stop-opacity:1;stop-color:#2c2829"
         offset="0.00537634"
         id="stop186" /><stop
         style="stop-opacity:1;stop-color:#565d63"
         offset="1"
         id="stop188" /></linearGradient><clipPath
       clipPathUnits="userSpaceOnUse"
       id="clipPath200"><path
         d="m 589.653,386.112 v -28.4 h -27.814 v 28.4 h -12.981 v -69.584 h 12.981 v 29.763 h 27.814 v -29.763 h 12.98 v 69.584 z"
         id="path198" /></clipPath><linearGradient
       x1="0"
       y1="0"
       x2="1"
       y2="0"
       gradientUnits="userSpaceOnUse"
       gradientTransform="matrix(8.5085526,51.051434,51.051434,-8.5085526,569.44116,313.49338)"
       spreadMethod="pad"
       id="linearGradient212"><stop
         style="stop-opacity:1;stop-color:#2c2829"
         offset="0"
         id="stop206" /><stop
         style="stop-opacity:1;stop-color:#2c2829"
         offset="0.00537634"
         id="stop208" /><stop
         style="stop-opacity:1;stop-color:#565d63"
         offset="1"
         id="stop210" /></linearGradient><clipPath
       clipPathUnits="userSpaceOnUse"
       id="clipPath222"><path
         d="m 492.255,386.112 v -69.584 h 11.417 v 4.975 h 0.292 c 2.538,-3.319 7.126,-6.146 12.69,-6.146 v 0 c 11.124,0 21.081,6.73 21.081,20.296 v 0 12.106 c 0,12.781 -8.783,19.712 -19.715,19.712 v 0 c -4.49,0 -10.053,-1.757 -13.761,-6.734 v 0 h -0.098 v 25.375 z m 11.906,-51.044 v 11.517 c 0,7.223 5.659,10.637 10.639,10.637 v 0 c 6.146,0 10.83,-3.513 10.83,-9.562 v 0 -12.395 c 0,-7.223 -5.463,-9.857 -10.442,-9.857 v 0 c -6.148,0 -11.027,3.609 -11.027,9.66"
         id="path220" /></clipPath><linearGradient
       x1="0"
       y1="0"
       x2="1"
       y2="0"
       gradientUnits="userSpaceOnUse"
       gradientTransform="matrix(8.5086613,51.052086,51.052086,-8.5086613,508.95386,323.57404)"
       spreadMethod="pad"
       id="linearGradient234"><stop
         style="stop-opacity:1;stop-color:#2c2829"
         offset="0"
         id="stop228" /><stop
         style="stop-opacity:1;stop-color:#2c2829"
         offset="0.00537634"
         id="stop230" /><stop
         style="stop-opacity:1;stop-color:#565d63"
         offset="1"
         id="stop232" /></linearGradient><clipPath
       clipPathUnits="userSpaceOnUse"
       id="clipPath244"><path
         d="m 367.007,387.268 0.033,-0.03 c -14.69,-0.463 -26.645,-9.558 -26.645,-25.625 v 0 -22.249 c 0,-15.518 13.176,-24.007 28.303,-24.007 v 0 c 13.274,0 26.058,7.414 26.058,22.932 v 0 14.543 h -30.253 v -11.71 h 17.956 v -1.663 c 0,-9.075 -6.442,-12.587 -13.761,-12.587 v 0 c -8.198,0 -15.418,4.781 -15.418,13.173 v 0 22.254 c 0,9.954 8.296,13.464 14.932,13.464 v 0 c 6.343,0 14.247,-2.631 14.247,-11.709 v 0 -0.976 h 12.297 v 2.146 c 0,9.954 -5.469,16.2 -12.889,19.411 v 0 c -5.235,2.352 -10.594,2.686 -13.214,2.686 v 0 c -1.038,0 -1.646,-0.053 -1.646,-0.053"
         id="path242" /></clipPath><linearGradient
       x1="0"
       y1="0"
       x2="1"
       y2="0"
       gradientUnits="userSpaceOnUse"
       gradientTransform="matrix(29.425999,46.797947,46.797947,-29.425999,360.74542,339.61423)"
       spreadMethod="pad"
       id="linearGradient256"><stop
         style="stop-opacity:1;stop-color:#2c2829"
         offset="0"
         id="stop250" /><stop
         style="stop-opacity:1;stop-color:#2c2829"
         offset="0.00537634"
         id="stop252" /><stop
         style="stop-opacity:1;stop-color:#565d63"
         offset="1"
         id="stop254" /></linearGradient><clipPath
       clipPathUnits="userSpaceOnUse"
       id="clipPath266"><path
         d="m 91.694,240.347 c 10.498,8.108 22.469,16.23 36.023,23.824 v 0 c 52.189,29.237 124.149,38.019 139.38,38.718 v 0 C 131.058,301.353 91.694,240.347 91.694,240.347"
         id="path264" /></clipPath><linearGradient
       x1="0"
       y1="0"
       x2="1"
       y2="0"
       gradientUnits="userSpaceOnUse"
       gradientTransform="matrix(63.52272,-100.58145,-100.58145,-63.52272,114.42922,374.48395)"
       spreadMethod="pad"
       id="linearGradient278"><stop
         style="stop-opacity:1;stop-color:#2c2829"
         offset="0"
         id="stop272" /><stop
         style="stop-opacity:1;stop-color:#2c2829"
         offset="0.00537634"
         id="stop274" /><stop
         style="stop-opacity:1;stop-color:#565d63"
         offset="1"
         id="stop276" /></linearGradient><clipPath
       clipPathUnits="userSpaceOnUse"
       id="clipPath288"><path
         d="M 203.659,309.817 C 129.391,300.468 72.783,264.32 77.22,229.075 v 0 c 1.311,-10.425 7.82,-19.598 18.247,-27.113 v 0 C 88.664,210.099 82,221.238 82.906,233.807 v 0 c 2.476,34.331 59.583,53.627 82.978,61.532 v 0 c 25.227,8.523 71.142,19.443 132.899,8.493 v 0 c -17.058,5.288 -37.713,8.208 -60.294,8.208 v 0 c -11.204,0 -22.881,-0.719 -34.83,-2.223"
         id="path286" /></clipPath><linearGradient
       x1="0"
       y1="0"
       x2="1"
       y2="0"
       gradientUnits="userSpaceOnUse"
       gradientTransform="matrix(76.576477,31.141354,31.141354,-76.576477,126.38687,251.41951)"
       spreadMethod="pad"
       id="linearGradient300"><stop
         style="stop-opacity:1;stop-color:#1e3d89"
         offset="0"
         id="stop294" /><stop
         style="stop-opacity:1;stop-color:#1e3d89"
         offset="0.00537634"
         id="stop296" /><stop
         style="stop-opacity:1;stop-color:#038ac5"
         offset="1"
         id="stop298" /></linearGradient><clipPath
       clipPathUnits="userSpaceOnUse"
       id="clipPath310"><path
         d="m 86.357,368.046 v -1.607 c 0,-0.099 -0.077,-0.179 -0.177,-0.179 v 0 c -0.098,0 -0.175,0.08 -0.175,0.179 v 0 1.508 c -1.642,-0.538 -2.849,-2.053 -2.947,-3.869 v 0 h -0.102 c -0.259,0 -0.471,-0.211 -0.471,-0.47 v 0 c 0,-0.258 0.212,-0.47 0.471,-0.47 v 0 h 8.94 c 0.259,0 0.469,0.212 0.469,0.47 v 0 c 0,0.259 -0.21,0.47 -0.469,0.47 v 0 h -0.289 c -0.099,1.769 -1.249,3.257 -2.832,3.83 v 0 -1.469 c 0,-0.099 -0.081,-0.179 -0.176,-0.179 v 0 c -0.097,0 -0.176,0.08 -0.176,0.179 v 0 1.582 c -0.273,0.07 -0.556,0.117 -0.845,0.134 v 0 -2.024 c 0,-0.096 -0.078,-0.176 -0.175,-0.176 v 0 c -0.099,0 -0.178,0.08 -0.178,0.176 v 0 2.028 c -0.299,-0.006 -0.589,-0.047 -0.868,-0.113"
         id="path308" /></clipPath><linearGradient
       x1="0"
       y1="0"
       x2="1"
       y2="0"
       gradientUnits="userSpaceOnUse"
       gradientTransform="matrix(-12.25294,-60.88187,-60.88187,12.25294,93.816521,395.36502)"
       spreadMethod="pad"
       id="linearGradient320"><stop
         style="stop-opacity:1;stop-color:#e3b510"
         offset="0"
         id="stop316" /><stop
         style="stop-opacity:1;stop-color:#de601c"
         offset="1"
         id="stop318" /></linearGradient><clipPath
       clipPathUnits="userSpaceOnUse"
       id="clipPath330"><path
         d="m 83.65,362.67 c 0.075,-1.053 0.595,-5.284 3.882,-5.302 v 0 c 3.079,0 3.785,4.125 3.651,5.302 v 0 z"
         id="path328" /></clipPath><linearGradient
       x1="0"
       y1="0"
       x2="1"
       y2="0"
       gradientUnits="userSpaceOnUse"
       gradientTransform="matrix(76.579025,31.142391,31.142391,-76.579025,68.900452,353.10742)"
       spreadMethod="pad"
       id="linearGradient342"><stop
         style="stop-opacity:1;stop-color:#2c2829"
         offset="0"
         id="stop336" /><stop
         style="stop-opacity:1;stop-color:#2c2829"
         offset="0.00537634"
         id="stop338" /><stop
         style="stop-opacity:1;stop-color:#565d63"
         offset="1"
         id="stop340" /></linearGradient><clipPath
       clipPathUnits="userSpaceOnUse"
       id="clipPath352"><path
         d="m 104.736,374.983 c -0.201,-0.85 0,-0.549 -1.504,-2.906 v 0 c -1.508,-2.357 -3.914,-5.316 -4.816,-6.82 v 0 c -0.901,-1.504 -3.811,-5.869 -4.614,-6.421 v 0 c -0.801,-0.551 -2.404,-0.902 -3.258,-0.5 v 0 c -0.854,0.402 -1.656,0.801 -1.656,0.801 v 0 l -2.458,-0.248 c 0,0 -0.071,0.002 -0.199,0.006 v 0 c -0.808,0.008 -3.853,-0.113 -5.064,-2.364 v 0 c -1.405,-2.607 -4.213,-7.824 -3.163,-8.727 v 0 c 1.055,-0.901 6.07,-3.51 6.07,-3.51 v 0 c 0,0 0.552,-5.314 4.315,-7.724 v 0 c -0.454,-4.813 -0.103,-5.214 -0.103,-5.214 v 0 c 0,0 3.411,-0.15 3.563,1.506 v 0 c 0.149,1.653 0.149,1.853 0.149,1.853 v 0 c 0,0 7.674,1.205 8.473,1.805 v 0 c 0.604,-2.758 0.755,-3.309 1.103,-3.258 v 0 c 0.351,0.05 2.56,0.551 3.811,1.654 v 0 c 1.558,1.104 2.709,1.956 2.709,1.956 v 0 c 0,0 6.973,-8.173 8.677,-8.626 v 0 c 1.707,-0.45 1.304,0.453 2.559,3.963 v 0 c 1.253,3.511 0.8,5.064 -0.301,4.663 v 0 c -1.104,-0.401 -3.161,-3.509 -3.161,-3.509 v 0 c 0,0 -2.457,4.412 -4.112,6.817 v 0 c -1.654,2.408 -4.513,6.221 -8.576,5.266 v 0 c -1.153,6.37 -1.906,6.821 -3.862,5.217 v 0 c -1.952,-1.604 -5.163,-4.815 -5.163,-4.815 v 0 c 0,0 -1.355,4.517 0.401,7.522 v 0 c 1.754,3.011 5.061,7.122 7.421,10.33 v 0 c 2.355,3.212 4.363,8.076 4.667,9.48 v 0 c 0.299,1.404 -0.707,3.212 -0.707,3.212 v 0 c 0,0 -1.001,-0.553 -1.201,-1.409 M 81.098,350.246 c 0.25,0.249 1.053,1.401 1.053,1.401 v 0 l 0.67,-3.041 c 0,0 -0.768,0.167 -1.723,1.64"
         id="path350" /></clipPath><linearGradient
       x1="0"
       y1="0"
       x2="1"
       y2="0"
       gradientUnits="userSpaceOnUse"
       gradientTransform="matrix(76.579437,31.142559,31.142559,-76.579437,75.277214,337.42297)"
       spreadMethod="pad"
       id="linearGradient364"><stop
         style="stop-opacity:1;stop-color:#2c2829"
         offset="0"
         id="stop358" /><stop
         style="stop-opacity:1;stop-color:#2c2829"
         offset="0.00537634"
         id="stop360" /><stop
         style="stop-opacity:1;stop-color:#565d63"
         offset="1"
         id="stop362" /></linearGradient></defs><sodipodi:namedview
     pagecolor="#ffffff"
     bordercolor="#666666"
     borderopacity="1"
     objecttolerance="10"
     gridtolerance="10"
     guidetolerance="10"
     inkscape:pageopacity="0"
     inkscape:pageshadow="2"
     inkscape:window-width="1628"
     inkscape:window-height="869"
     id="namedview4"
     showgrid="false"
     fit-margin-top="0"
     fit-margin-left="0"
     fit-margin-right="0"
     fit-margin-bottom="0"
     inkscape:zoom="0.96380331"
     inkscape:cx="487.19492"
     inkscape:cy="98.141149"
     inkscape:window-x="119"
     inkscape:window-y="204"
     inkscape:window-maximized="0"
     inkscape:current-layer="g10"
     inkscape:document-rotation="0" /><g
     id="g10"
     inkscape:groupmode="layer"
     inkscape:label="T.H.E. GmbH Vektor 1 Grafik26"
     transform="matrix(1.3333333,0,0,-1.3333333,-102.63467,516.42798)"><g
       id="g1085"
       transform="matrix(0.3652572,0,0,0.3652572,48.859963,208.34921)"><g
         id="g18"><g
           id="g20"
           clip-path="url(#clipPath24)"><g
             id="g26"><g
               id="g28"><path
                 d="m 89.28,385.578 c 1.784,-3.613 3.885,-7.222 5.668,-10.835 v 0 c 7.6,-0.019 15.198,-0.04 22.797,-0.059 v 0 c -0.194,-30.448 -0.389,-60.897 -0.584,-91.345 v 0 c 5.086,2.574 10.171,5.149 15.256,7.724 v 0 c -0.578,27.873 -1.157,55.747 -1.734,83.621 v 0 c 8.13,0.019 16.263,0.04 24.393,0.059 v 0 c 2.114,3.687 3.586,7.148 5.7,10.835 v 0 c -11.947,-0.037 -23.811,-0.019 -35.676,0 v 0 c -6.905,0.01 -13.808,0.021 -20.728,0.021 v 0 c -5.02,0 -10.05,-0.005 -15.092,-0.021"
                 style="fill:url(#linearGradient36);stroke:none"
                 id="path38" /></g></g></g></g><g
         id="g40"><g
           id="g42"
           clip-path="url(#clipPath46)"><g
             id="g48"><g
               id="g50"><path
                 d="m 146.315,315.977 h 7.86 v 8.94 h -7.86 z"
                 style="fill:url(#linearGradient58);stroke:none"
                 id="path60" /></g></g></g></g><g
         id="g62"><g
           id="g64"
           clip-path="url(#clipPath68)"><g
             id="g70"><g
               id="g72"><path
                 d="m 210.038,385.856 v -28.519 h -27.932 v 28.519 h -13.035 v -69.879 h 13.035 v 29.893 h 27.932 v -29.893 h 13.035 v 69.879 z"
                 style="fill:url(#linearGradient80);stroke:none"
                 id="path82" /></g></g></g></g><g
         id="g84"><g
           id="g86"
           clip-path="url(#clipPath90)"><g
             id="g92"><g
               id="g94"><path
                 d="m 230.024,315.977 h 7.86 v 8.94 h -7.86 z"
                 style="fill:url(#linearGradient102);stroke:none"
                 id="path104" /></g></g></g></g><g
         id="g106"><g
           id="g108"
           clip-path="url(#clipPath112)"><g
             id="g114"><g
               id="g116"><path
                 d="m 252.78,385.856 v -69.879 h 48.905 v 11.467 h -35.87 v 18.426 h 31.46 v 11.467 h -31.46 v 17.052 h 35.479 v 11.467 z"
                 style="fill:url(#linearGradient124);stroke:none"
                 id="path126" /></g></g></g></g><g
         id="g128"><g
           id="g130"
           clip-path="url(#clipPath134)"><g
             id="g136"><g
               id="g138"><path
                 d="m 306.873,315.977 h 7.861 v 8.94 h -7.861 z"
                 style="fill:url(#linearGradient146);stroke:none"
                 id="path148" /></g></g></g></g><g
         id="g150"
         inkscape:export-xdpi="300"
         inkscape:export-ydpi="300"><g
           id="g152"
           clip-path="url(#clipPath156)"><g
             id="g158"><g
               id="g160"><path
                 d="m 501.587,300.203 c 0,-2.268 1.622,-3.628 4.247,-4.558 v 0 c 2.172,-0.836 3.031,-1.695 3.031,-3.199 v 0 c 0,-1.622 -1.241,-2.744 -3.365,-2.744 v 0 c -1.432,0 -2.792,0.478 -3.723,1.05 v 0 l -0.525,-1.742 c 0.859,-0.573 2.554,-1.025 4.105,-1.025 v 0 c 3.795,0 5.632,2.147 5.632,4.628 v 0 c 0,2.364 -1.385,3.676 -4.105,4.725 v 0 c -2.219,0.86 -3.197,1.6 -3.197,3.104 v 0 c 0,1.097 0.834,2.41 3.031,2.41 v 0 c 1.454,0 2.529,-0.478 3.055,-0.764 v 0 l 0.572,1.694 c -0.716,0.406 -1.91,0.788 -3.556,0.788 v 0 c -3.126,0 -5.202,-1.861 -5.202,-4.367 m -28.781,0.405 c 0,-1.145 0.5,-2.314 1.336,-3.365 v 0 -0.071 c -1.837,-1.002 -3.15,-2.506 -3.15,-4.702 v 0 c 0,-2.41 1.814,-4.51 4.94,-4.51 v 0 c 1.766,0 3.317,0.548 4.7,1.838 v 0 c 0.622,-0.669 1.052,-1.122 1.504,-1.576 v 0 h 2.482 c -0.954,1.027 -1.789,1.933 -2.648,2.841 v 0 c 1.193,1.407 1.884,3.412 2.315,5.941 v 0 h -1.91 c -0.31,-2.027 -0.811,-3.579 -1.551,-4.7 v 0 c -1.026,1.145 -2.553,2.91 -3.914,4.486 v 0 0.071 c 2.554,1.266 3.533,2.602 3.533,4.296 v 0 c 0,2.076 -1.552,3.413 -3.556,3.413 v 0 c -2.673,0 -4.081,-2.004 -4.081,-3.962 m 1.909,0.192 c 0,1.24 0.692,2.338 2.028,2.338 v 0 c 1.313,0 1.862,-1.098 1.862,-2.076 v 0 c 0,-1.361 -1.051,-2.22 -2.673,-3.15 v 0 c -0.692,0.858 -1.217,1.742 -1.217,2.888 m -1.719,-8.019 c 0,1.694 1.218,2.72 2.076,3.27 v 0 c 1.79,-2.053 3.58,-4.01 4.534,-5.059 v 0 c -0.763,-0.837 -1.932,-1.457 -3.316,-1.457 v 0 c -1.933,0 -3.294,1.408 -3.294,3.246 m 126.674,11.527 -2.316,-4.439 c -0.62,-1.218 -1.169,-2.268 -1.622,-3.317 v 0 h -0.047 c -0.502,1.121 -0.979,2.099 -1.599,3.317 v 0 l -2.268,4.439 h -2.362 l 5.083,-9.26 v -6.826 h 2.1 v 6.85 l 5.393,9.236 z m -28.328,0 v -1.767 h 4.892 v -14.319 h 2.101 v 14.319 h 4.916 v 1.767 z m -15.535,0 v -16.086 h 9.045 v 1.743 h -6.969 v 5.798 h 6.252 v 1.719 h -6.252 v 5.084 h 6.61 v 1.742 z m -16.873,0 v -16.086 h 2.077 v 7.279 h 6.085 v 1.719 h -6.085 v 5.346 h 6.587 v 1.742 z m -15.607,0 -5.466,-16.086 h 2.148 l 1.671,5.06 h 5.704 l 1.718,-5.06 h 2.219 l -5.489,16.086 z m 0.358,-4.749 c 0.309,0.978 0.572,1.956 0.811,2.91 v 0 h 0.047 c 0.239,-0.93 0.477,-1.884 0.836,-2.935 v 0 l 1.575,-4.63 h -4.844 z m -72.882,4.749 v -6.73 h -7.781 v 6.73 h -2.076 v -16.086 h 2.076 v 7.541 h 7.781 v -7.541 h 2.099 v 16.086 z m -28.805,0 v -1.767 h 4.892 v -14.319 h 2.1 v 14.319 h 4.916 v 1.767 z m -12.577,0 v -16.086 h 8.949 v 1.743 h -6.873 v 14.343 z m -15.607,0 -5.466,-16.086 h 2.148 l 1.671,5.06 h 5.703 l 1.719,-5.06 h 2.22 l -5.49,16.086 z m 0.358,-4.749 c 0.31,0.978 0.573,1.956 0.811,2.91 v 0 h 0.048 c 0.238,-0.93 0.477,-1.884 0.835,-2.935 v 0 l 1.576,-4.63 h -4.845 z m -21.599,4.749 v -16.086 h 9.045 v 1.743 h -6.969 v 5.798 h 6.253 v 1.719 h -6.253 v 5.084 h 6.612 v 1.742 z m -10.953,0 v -6.73 h -7.78 v 6.73 h -2.076 v -16.086 h 2.076 v 7.541 h 7.78 v -7.541 h 2.1 v 16.086 z"
                 style="fill:url(#linearGradient168);stroke:none"
                 id="path170" /></g></g></g></g><g
         id="g172"><g
           id="g174"
           clip-path="url(#clipPath178)"><g
             id="g180"><g
               id="g182"><path
                 d="m 446.58,360.053 h -0.1 c -3.122,4.782 -7.611,7.418 -14.248,7.418 v 0 c -5.855,0 -10.736,-2.44 -14.151,-7.027 v 0 h -0.196 v 6.051 h -11.514 v -49.967 h 11.906 v 29.373 c 0,8.298 5.466,11.128 9.662,11.128 v 0 c 7.22,0 9.077,-5.272 9.077,-11.615 v 0 -28.886 h 11.908 v 28.789 c 0,6.538 2.827,11.712 9.562,11.712 v 0 c 6.733,0 9.077,-4.684 9.077,-11.42 v 0 -29.081 h 11.906 v 33.377 c 0,12.198 -8.198,17.566 -17.47,17.566 v 0 c -6.833,0 -11.906,-2.93 -15.419,-7.418"
                 style="fill:url(#linearGradient190);stroke:none"
                 id="path192" /></g></g></g></g><g
         id="g194"><g
           id="g196"
           clip-path="url(#clipPath200)"><g
             id="g202"><g
               id="g204"><path
                 d="m 589.653,386.112 v -28.4 h -27.814 v 28.4 h -12.981 v -69.584 h 12.981 v 29.763 h 27.814 v -29.763 h 12.98 v 69.584 z"
                 style="fill:url(#linearGradient212);stroke:none"
                 id="path214" /></g></g></g></g><g
         id="g216"><g
           id="g218"
           clip-path="url(#clipPath222)"><g
             id="g224"><g
               id="g226"><path
                 d="m 492.255,386.112 v -69.584 h 11.417 v 4.975 h 0.292 c 2.538,-3.319 7.126,-6.146 12.69,-6.146 v 0 c 11.124,0 21.081,6.73 21.081,20.296 v 0 12.106 c 0,12.781 -8.783,19.712 -19.715,19.712 v 0 c -4.49,0 -10.053,-1.757 -13.761,-6.734 v 0 h -0.098 v 25.375 z m 11.906,-51.044 v 11.517 c 0,7.223 5.659,10.637 10.639,10.637 v 0 c 6.146,0 10.83,-3.513 10.83,-9.562 v 0 -12.395 c 0,-7.223 -5.463,-9.857 -10.442,-9.857 v 0 c -6.148,0 -11.027,3.609 -11.027,9.66"
                 style="fill:url(#linearGradient234);stroke:none"
                 id="path236" /></g></g></g></g><g
         id="g238"><g
           id="g240"
           clip-path="url(#clipPath244)"><g
             id="g246"><g
               id="g248"><path
                 d="m 367.007,387.268 0.033,-0.03 c -14.69,-0.463 -26.645,-9.558 -26.645,-25.625 v 0 -22.249 c 0,-15.518 13.176,-24.007 28.303,-24.007 v 0 c 13.274,0 26.058,7.414 26.058,22.932 v 0 14.543 h -30.253 v -11.71 h 17.956 v -1.663 c 0,-9.075 -6.442,-12.587 -13.761,-12.587 v 0 c -8.198,0 -15.418,4.781 -15.418,13.173 v 0 22.254 c 0,9.954 8.296,13.464 14.932,13.464 v 0 c 6.343,0 14.247,-2.631 14.247,-11.709 v 0 -0.976 h 12.297 v 2.146 c 0,9.954 -5.469,16.2 -12.889,19.411 v 0 c -5.235,2.352 -10.594,2.686 -13.214,2.686 v 0 c -1.038,0 -1.646,-0.053 -1.646,-0.053"
                 style="fill:url(#linearGradient256);stroke:none"
                 id="path258" /></g></g></g></g><g
         id="g260"><g
           id="g262"
           clip-path="url(#clipPath266)"><g
             id="g268"><g
               id="g270"><path
                 d="m 91.694,240.347 c 10.498,8.108 22.469,16.23 36.023,23.824 v 0 c 52.189,29.237 124.149,38.019 139.38,38.718 v 0 C 131.058,301.353 91.694,240.347 91.694,240.347"
                 style="fill:url(#linearGradient278);stroke:none"
                 id="path280" /></g></g></g></g><g
         id="g282"><g
           id="g284"
           clip-path="url(#clipPath288)"><g
             id="g290"><g
               id="g292"><path
                 d="M 203.659,309.817 C 129.391,300.468 72.783,264.32 77.22,229.075 v 0 c 1.311,-10.425 7.82,-19.598 18.247,-27.113 v 0 C 88.664,210.099 82,221.238 82.906,233.807 v 0 c 2.476,34.331 59.583,53.627 82.978,61.532 v 0 c 25.227,8.523 71.142,19.443 132.899,8.493 v 0 c -17.058,5.288 -37.713,8.208 -60.294,8.208 v 0 c -11.204,0 -22.881,-0.719 -34.83,-2.223"
                 style="fill:url(#linearGradient300);stroke:none"
                 id="path302" /></g></g></g></g><g
         id="g304"><g
           id="g306"
           clip-path="url(#clipPath310)"><g
             id="g312"><g
               id="g314"><path
                 d="m 86.357,368.046 v -1.607 c 0,-0.099 -0.077,-0.179 -0.177,-0.179 v 0 c -0.098,0 -0.175,0.08 -0.175,0.179 v 0 1.508 c -1.642,-0.538 -2.849,-2.053 -2.947,-3.869 v 0 h -0.102 c -0.259,0 -0.471,-0.211 -0.471,-0.47 v 0 c 0,-0.258 0.212,-0.47 0.471,-0.47 v 0 h 8.94 c 0.259,0 0.469,0.212 0.469,0.47 v 0 c 0,0.259 -0.21,0.47 -0.469,0.47 v 0 h -0.289 c -0.099,1.769 -1.249,3.257 -2.832,3.83 v 0 -1.469 c 0,-0.099 -0.081,-0.179 -0.176,-0.179 v 0 c -0.097,0 -0.176,0.08 -0.176,0.179 v 0 1.582 c -0.273,0.07 -0.556,0.117 -0.845,0.134 v 0 -2.024 c 0,-0.096 -0.078,-0.176 -0.175,-0.176 v 0 c -0.099,0 -0.178,0.08 -0.178,0.176 v 0 2.028 c -0.299,-0.006 -0.589,-0.047 -0.868,-0.113"
                 style="fill:url(#linearGradient320);stroke:none"
                 id="path322" /></g></g></g></g><g
         id="g324"><g
           id="g326"
           clip-path="url(#clipPath330)"><g
             id="g332"><g
               id="g334"><path
                 d="m 83.65,362.67 c 0.075,-1.053 0.595,-5.284 3.882,-5.302 v 0 c 3.079,0 3.785,4.125 3.651,5.302 v 0 z"
                 style="fill:url(#linearGradient342);stroke:none"
                 id="path344" /></g></g></g></g><g
         id="g346"><g
           id="g348"
           clip-path="url(#clipPath352)"><g
             id="g354"><g
               id="g356"><path
                 d="m 104.736,374.983 c -0.201,-0.85 0,-0.549 -1.504,-2.906 v 0 c -1.508,-2.357 -3.914,-5.316 -4.816,-6.82 v 0 c -0.901,-1.504 -3.811,-5.869 -4.614,-6.421 v 0 c -0.801,-0.551 -2.404,-0.902 -3.258,-0.5 v 0 c -0.854,0.402 -1.656,0.801 -1.656,0.801 v 0 l -2.458,-0.248 c 0,0 -0.071,0.002 -0.199,0.006 v 0 c -0.808,0.008 -3.853,-0.113 -5.064,-2.364 v 0 c -1.405,-2.607 -4.213,-7.824 -3.163,-8.727 v 0 c 1.055,-0.901 6.07,-3.51 6.07,-3.51 v 0 c 0,0 0.552,-5.314 4.315,-7.724 v 0 c -0.454,-4.813 -0.103,-5.214 -0.103,-5.214 v 0 c 0,0 3.411,-0.15 3.563,1.506 v 0 c 0.149,1.653 0.149,1.853 0.149,1.853 v 0 c 0,0 7.674,1.205 8.473,1.805 v 0 c 0.604,-2.758 0.755,-3.309 1.103,-3.258 v 0 c 0.351,0.05 2.56,0.551 3.811,1.654 v 0 c 1.558,1.104 2.709,1.956 2.709,1.956 v 0 c 0,0 6.973,-8.173 8.677,-8.626 v 0 c 1.707,-0.45 1.304,0.453 2.559,3.963 v 0 c 1.253,3.511 0.8,5.064 -0.301,4.663 v 0 c -1.104,-0.401 -3.161,-3.509 -3.161,-3.509 v 0 c 0,0 -2.457,4.412 -4.112,6.817 v 0 c -1.654,2.408 -4.513,6.221 -8.576,5.266 v 0 c -1.153,6.37 -1.906,6.821 -3.862,5.217 v 0 c -1.952,-1.604 -5.163,-4.815 -5.163,-4.815 v 0 c 0,0 -1.355,4.517 0.401,7.522 v 0 c 1.754,3.011 5.061,7.122 7.421,10.33 v 0 c 2.355,3.212 4.363,8.076 4.667,9.48 v 0 c 0.299,1.404 -0.707,3.212 -0.707,3.212 v 0 c 0,0 -1.001,-0.553 -1.201,-1.409 M 81.098,350.246 c 0.25,0.249 1.053,1.401 1.053,1.401 v 0 l 0.67,-3.041 c 0,0 -0.768,0.167 -1.723,1.64"
                 style="fill:url(#linearGradient364);stroke:none"
                 id="path366" /></g></g></g></g></g></g></svg>
