<?xml version="1.0" encoding="UTF-8" standalone="no"?>
<!-- Generator: Adobe Illustrator 23.0.6, SVG Export Plug-In . SVG Version: 6.00 Build 0)  -->

<svg
   xmlns:dc="http://purl.org/dc/elements/1.1/"
   xmlns:cc="http://creativecommons.org/ns#"
   xmlns:rdf="http://www.w3.org/1999/02/22-rdf-syntax-ns#"
   xmlns:svg="http://www.w3.org/2000/svg"
   xmlns="http://www.w3.org/2000/svg"
   xmlns:sodipodi="http://sodipodi.sourceforge.net/DTD/sodipodi-0.dtd"
   xmlns:inkscape="http://www.inkscape.org/namespaces/inkscape"
   version="1.1"
   id="Ebene_1"
   x="0px"
   y="0px"
   viewBox="0 0 196.35466 36"
   xml:space="preserve"
   sodipodi:docname="the-logo-header.svg"
   width="196.35466"
   height="36"
   inkscape:version="0.92.4 (5da689c313, 2019-01-14)"><metadata
   id="metadata112"><rdf:RDF><cc:Work
       rdf:about=""><dc:format>image/svg+xml</dc:format><dc:type
         rdf:resource="http://purl.org/dc/dcmitype/StillImage" /><dc:title>Artboard 6 copy 3</dc:title></cc:Work></rdf:RDF></metadata><defs
   id="defs110" /><sodipodi:namedview
   pagecolor="#ffffff"
   bordercolor="#666666"
   borderopacity="1"
   objecttolerance="10"
   gridtolerance="10"
   guidetolerance="10"
   inkscape:pageopacity="0"
   inkscape:pageshadow="2"
   inkscape:window-width="1568"
   inkscape:window-height="707"
   id="namedview108"
   showgrid="false"
   fit-margin-top="0"
   fit-margin-left="0"
   fit-margin-right="0"
   fit-margin-bottom="0"
   inkscape:zoom="1.3974834"
   inkscape:cx="-20.145165"
   inkscape:cy="41.903251"
   inkscape:window-x="0"
   inkscape:window-y="0"
   inkscape:window-maximized="0"
   inkscape:current-layer="Ebene_1" />
<style
   type="text/css"
   id="style2">
	.st0{fill:url(#SVGID_1_);}
	.st1{fill:url(#SVGID_2_);}
	.st2{fill:url(#SVGID_3_);}
	.st3{fill:url(#SVGID_4_);}
	.st4{fill:url(#SVGID_5_);}
	.st5{fill:url(#SVGID_6_);}
	.st6{display:none;fill:url(#SVGID_7_);}
	.st7{fill:url(#SVGID_8_);}
	.st8{fill:url(#SVGID_9_);}
	.st9{fill:url(#SVGID_10_);}
	.st10{fill:url(#SVGID_11_);}
	.st11{fill:url(#SVGID_12_);}
	.st12{fill:url(#SVGID_13_);}
	.st13{fill:url(#SVGID_14_);}
</style>
<title
   id="title4">Artboard 6 copy 3</title>


<g
   id="g4682"
   transform="matrix(0.37400092,0,0,0.37400092,3.307912e-8,-1.1764314e-6)"><g
     transform="translate(-77.588819,-288.24355)"
     id="Layer_1">
	
		<linearGradient
   gradientTransform="matrix(1,0,0,-1,0,676)"
   y2="386.1492"
   x2="125.08"
   y1="291.54999"
   x1="125.08"
   gradientUnits="userSpaceOnUse"
   id="SVGID_1_">
		<stop
   id="stop6"
   style="stop-color:#02408B"
   offset="1.000000e-02" />
		<stop
   id="stop8"
   style="stop-color:#008DC5"
   offset="1" />
	</linearGradient>
	<path
   style="fill:url(#SVGID_1_)"
   inkscape:connector-curvature="0"
   id="path11"
   d="M 117.8,300.8 95,300.7 c -1.8,-3.6 -3.9,-7.2 -5.7,-10.8 23.9,-0.1 47.6,0.1 71.5,0 -2.1,3.7 -3.6,7.1 -5.7,10.8 l -24.4,0.1 1.7,83.6 -15.5,0.1 z"
   class="st0" />
	
		<linearGradient
   gradientTransform="matrix(1,0,0,-1,0,676)"
   y2="325.47"
   x2="150.24001"
   y1="316.53"
   x1="150.24001"
   gradientUnits="userSpaceOnUse"
   id="SVGID_2_">
		<stop
   id="stop13"
   style="stop-color:#02408B"
   offset="1.000000e-02" />
		<stop
   id="stop15"
   style="stop-color:#008DC5"
   offset="1" />
	</linearGradient>
	<path
   style="fill:url(#SVGID_2_)"
   inkscape:connector-curvature="0"
   id="path18"
   d="m 146.3,350.5 h 7.9 v 8.9 h -7.9 z"
   class="st1" />
	
		<linearGradient
   gradientTransform="matrix(1,0,0,-1,0,676)"
   y2="386.41"
   x2="196.035"
   y1="316.53"
   x1="196.035"
   gradientUnits="userSpaceOnUse"
   id="SVGID_3_">
		<stop
   id="stop20"
   style="stop-color:#02408B"
   offset="1.000000e-02" />
		<stop
   id="stop22"
   style="stop-color:#008DC5"
   offset="1" />
	</linearGradient>
	<path
   style="fill:url(#SVGID_3_)"
   inkscape:connector-curvature="0"
   id="path25"
   d="m 169.1,289.6 h 13 v 28.5 H 210 v -28.5 h 13 v 69.9 h -13 v -29.9 h -27.9 v 29.9 h -13 z"
   class="st2" />
	
		<linearGradient
   gradientTransform="matrix(1,0,0,-1,0,676)"
   y2="325.47"
   x2="233.92999"
   y1="316.53"
   x1="233.92999"
   gradientUnits="userSpaceOnUse"
   id="SVGID_4_">
		<stop
   id="stop27"
   style="stop-color:#02408B"
   offset="1.000000e-02" />
		<stop
   id="stop29"
   style="stop-color:#008DC5"
   offset="1" />
	</linearGradient>
	<path
   style="fill:url(#SVGID_4_)"
   inkscape:connector-curvature="0"
   id="path32"
   d="m 230,350.5 h 7.9 v 8.9 H 230 Z"
   class="st3" />
	
		<linearGradient
   gradientTransform="matrix(1,0,0,-1,0,676)"
   y2="386.41"
   x2="277.23499"
   y1="316.53"
   x1="277.23499"
   gradientUnits="userSpaceOnUse"
   id="SVGID_5_">
		<stop
   id="stop34"
   style="stop-color:#02408B"
   offset="1.000000e-02" />
		<stop
   id="stop36"
   style="stop-color:#008DC5"
   offset="1" />
	</linearGradient>
	<path
   style="fill:url(#SVGID_5_)"
   inkscape:connector-curvature="0"
   id="path39"
   d="m 252.8,289.6 h 48.5 v 11.5 h -35.5 v 17 h 31.5 v 11.5 H 265.8 V 348 h 35.9 v 11.5 h -48.9 z"
   class="st4" />
	
		<linearGradient
   gradientTransform="matrix(1,0,0,-1,0,676)"
   y2="325.47"
   x2="310.79999"
   y1="316.53"
   x1="310.79999"
   gradientUnits="userSpaceOnUse"
   id="SVGID_6_">
		<stop
   id="stop41"
   style="stop-color:#02408B"
   offset="1.000000e-02" />
		<stop
   id="stop43"
   style="stop-color:#008DC5"
   offset="1" />
	</linearGradient>
	<path
   style="fill:url(#SVGID_6_)"
   inkscape:connector-curvature="0"
   id="path46"
   d="m 306.9,350.5 h 7.9 v 8.9 h -7.9 z"
   class="st5" />
</g><g
     transform="translate(-77.588819,-288.24355)"
     id="Ebene_3">
	
		<linearGradient
   gradientTransform="matrix(1,0,0,-1,0,676)"
   y2="296.8273"
   x2="617.62"
   y1="296.8273"
   x1="349.95001"
   gradientUnits="userSpaceOnUse"
   id="SVGID_7_">
		<stop
   id="stop49"
   style="stop-color:#02408B"
   offset="1.000000e-02" />
		<stop
   id="stop51"
   style="stop-color:#008DC5"
   offset="1" />
	</linearGradient>
	<path
   style="display:none;fill:url(#SVGID_7_)"
   inkscape:connector-curvature="0"
   id="path54"
   d="M 450.8,377.9 H 443 v -6.7 h -2 v 16.1 h 2 v -7.5 h 7.8 v 7.5 h 2.1 v -16.1 h -2.1 z m -28.8,-5 h 4.9 v 14.3 h 2.1 v -14.3 h 4.9 v -1.8 H 422 Z m -10.5,-1.8 h -2.1 v 16.1 h 9 v -1.8 h -6.9 z m -49.9,6.7 h -7.8 v -6.7 h -2.1 v 16.1 h 2.1 v -7.5 h 7.8 v 7.5 h 2.1 v -16 h -2.1 z m 32.2,-6.7 -5.5,16.1 h 2.1 l 1.7,-5.1 h 5.7 l 1.7,5.1 h 2.2 l -5.5,-16.1 z m -1.2,9.4 1.6,-4.6 c 0.3,-1 0.6,-2 0.8,-2.9 v 0 c 0.2,0.9 0.5,1.9 0.8,2.9 l 1.6,4.6 z m -18,-0.9 h 6.3 V 378 h -6.3 v -5.1 h 6.6 v -1.7 h -8.7 v 16.1 h 9 v -1.8 h -7 z m 132.2,-1.5 c -2.2,-0.9 -3.2,-1.6 -3.2,-3.1 0,-1.1 0.8,-2.4 3,-2.4 1,0 2.1,0.3 3,0.8 l 0.6,-1.7 c -1.1,-0.6 -2.3,-0.8 -3.5,-0.8 -3.1,0 -5.2,1.9 -5.2,4.4 0,2.3 1.6,3.6 4.2,4.5 2.2,0.8 3,1.7 3,3.2 0,1.5 -1.3,2.8 -3.4,2.8 -1.3,0 -2.6,-0.4 -3.7,-1 l -0.5,1.7 c 1.3,0.7 2.7,1 4.1,1 3.8,0 5.6,-2.1 5.6,-4.6 0,-2.5 -1.2,-3.7 -4,-4.8 z m 51,1.5 h 6.3 V 378 h -6.3 v -5.1 h 6.6 v -1.7 h -8.7 v 16.1 h 9 v -1.8 h -7 z m 13.5,-6.7 h 4.9 v 14.3 h 2.1 v -14.3 h 4.9 v -1.8 h -11.9 z m 28.3,-1.8 -2.3,4.4 c -0.6,1.2 -1.2,2.3 -1.6,3.3 v 0 c -0.5,-1.1 -1,-2.1 -1.6,-3.3 l -2.3,-4.4 h -2.4 l 5.1,9.3 v 6.8 h 2.1 v -6.9 l 5.4,-9.2 z m -60.7,16.1 H 541 V 380 h 6.1 v -1.7 H 541 v -5.4 h 6.6 v -1.7 h -8.7 z m -54.7,-8.8 h -1.9 c -0.2,1.7 -0.7,3.3 -1.5,4.7 -1,-1.1 -2.5,-2.9 -3.9,-4.5 v -0.1 c 2.5,-1.3 3.5,-2.6 3.5,-4.3 0,-1.8 -1.4,-3.4 -3.3,-3.4 -0.1,0 -0.2,0 -0.3,0 -2.1,-0.1 -4,1.5 -4.1,3.7 0,0.1 0,0.2 0,0.3 0.1,1.2 0.5,2.4 1.3,3.4 v 0.1 c -1.9,0.8 -3.1,2.7 -3.1,4.7 0,2.4 1.8,4.5 4.9,4.5 1.7,0 3.4,-0.6 4.7,-1.8 0.6,0.7 1,1.1 1.5,1.6 h 2.5 c -1,-1 -1.8,-1.9 -2.6,-2.8 1.4,-1.8 2.2,-3.9 2.3,-6.1 z m -7.5,-6.1 c 1,0 1.9,0.9 1.9,1.9 0,0.1 0,0.1 0,0.2 0,1.4 -1,2.2 -2.7,3.1 -0.7,-0.8 -1.2,-1.8 -1.2,-2.9 -0.1,-1.2 0.7,-2.2 1.9,-2.3 0,0 0.1,0 0.1,0 z m -0.5,13.6 c -1.7,0.1 -3.2,-1.3 -3.3,-3 0,-0.1 0,-0.1 0,-0.2 0.1,-1.4 0.9,-2.6 2.1,-3.3 1.8,2 3.6,4 4.5,5.1 -0.8,0.8 -2,1.4 -3.3,1.4 z m 47,-14.8 -5.5,16.1 h 2.2 l 1.7,-5.1 h 5.7 l 1.7,5.1 h 2.2 l -5.5,-16.1 z m -1.2,9.4 1.6,-4.6 c 0.3,-1 0.6,-2 0.8,-2.9 v 0 c 0.2,0.9 0.5,1.9 0.8,2.9 l 1.6,4.6 z"
   class="st6" />
	
		<linearGradient
   gradientTransform="matrix(1,0,0,-1,0,676)"
   y2="386.36981"
   x2="450.30109"
   y1="335.31979"
   x1="441.80109"
   gradientUnits="userSpaceOnUse"
   id="SVGID_8_">
		<stop
   id="stop56"
   style="stop-color:#302E2F"
   offset="1.000000e-02" />
		<stop
   id="stop58"
   style="stop-color:#5A6870"
   offset="1" />
	</linearGradient>
	<path
   style="fill:url(#SVGID_8_)"
   inkscape:connector-curvature="0"
   id="path61"
   d="m 462,308 c -6,-0.1 -11.8,2.6 -15.4,7.4 h -0.1 c -3.1,-4.8 -7.6,-7.4 -14.3,-7.4 -5.6,-0.1 -10.9,2.5 -14.1,7 h -0.2 v -6 h -11.5 v 50 h 11.9 v -29.5 c 0,-8.3 5.5,-11.1 9.7,-11.1 7.2,0 9.1,5.3 9.1,11.6 v 28.9 H 449 v -28.8 c 0,-6.5 2.8,-11.7 9.6,-11.7 6.8,0 9.1,4.7 9.1,11.4 v 29.1 h 11.9 V 325.5 C 479.5,313.4 471.3,308 462,308 Z"
   class="st7" />
	
		<linearGradient
   gradientTransform="matrix(1,0,0,-1,0,676)"
   y2="365.10001"
   x2="577.95001"
   y1="314.04001"
   x1="569.44"
   gradientUnits="userSpaceOnUse"
   id="SVGID_9_">
		<stop
   id="stop63"
   style="stop-color:#302E2F"
   offset="1.000000e-02" />
		<stop
   id="stop65"
   style="stop-color:#5A6870"
   offset="1" />
	</linearGradient>
	<polygon
   style="fill:url(#SVGID_9_)"
   id="polygon68"
   points="602.6,289.3 589.7,289.3 589.7,317.7 561.8,317.7 561.8,289.3 548.9,289.3 548.9,358.9 561.8,358.9 561.8,329.2 589.7,329.2 589.7,358.9 602.6,358.9 "
   class="st8" />
	
		<linearGradient
   gradientTransform="matrix(1,0,0,-1,0,676)"
   y2="375.17719"
   x2="517.47638"
   y1="324.11719"
   x1="508.9664"
   gradientUnits="userSpaceOnUse"
   id="SVGID_10_">
		<stop
   id="stop70"
   style="stop-color:#302E2F"
   offset="1.000000e-02" />
		<stop
   id="stop72"
   style="stop-color:#5A6870"
   offset="1" />
	</linearGradient>
	<path
   style="fill:url(#SVGID_10_)"
   inkscape:connector-curvature="0"
   id="path75"
   d="m 518,308 c -5.4,-0.1 -10.5,2.4 -13.8,6.7 h -0.1 v -25.4 h -11.9 v 69.6 h 11.4 v -5 h 0.3 c 3.1,3.9 7.7,6.1 12.7,6.1 11.1,0 21.1,-6.7 21.1,-20.3 V 327.6 C 537.7,314.9 529,308 518,308 Z m 7.6,32.2 c 0,7.2 -5.5,9.9 -10.4,9.9 -6.1,0 -11,-3.6 -11,-9.7 v -11.5 c 0,-7.2 5.7,-10.6 10.6,-10.6 6.2,0 10.8,3.5 10.8,9.6 z"
   class="st9" />
	
		<linearGradient
   gradientTransform="matrix(1,0,0,-1,0,676)"
   y2="386.98541"
   x2="390.12949"
   y1="340.1955"
   x1="360.7095"
   gradientUnits="userSpaceOnUse"
   id="SVGID_11_">
		<stop
   id="stop77"
   style="stop-color:#302E2F"
   offset="1.000000e-02" />
		<stop
   id="stop79"
   style="stop-color:#5A6870"
   offset="1" />
	</linearGradient>
	<path
   style="fill:url(#SVGID_11_)"
   inkscape:connector-curvature="0"
   id="path82"
   d="m 394.8,312.4 v -2.1 c 0,-10 -5.5,-16.2 -12.9,-19.4 -4.7,-2 -9.8,-2.9 -14.9,-2.6 v 0 c -14.7,0.5 -26.6,9.6 -26.6,25.6 v 22.3 c 0,15.5 13.2,24 28.3,24 13.3,0 26.1,-7.4 26.1,-22.9 v -14.5 h -30.2 v 11.7 h 18 v 1.7 c 0,9.1 -6.4,12.6 -13.8,12.6 -8.2,0 -15.4,-4.8 -15.4,-13.2 v -22.3 c 0,-10 8.3,-13.5 14.9,-13.5 6.3,0 14.3,2.6 14.3,11.7 v 1 z"
   class="st10" />
</g><g
     transform="translate(-77.588819,-288.24355)"
     id="Arbeiter">
	
		<linearGradient
   gradientTransform="matrix(1,0,0,-1,0,676)"
   y2="335.02521"
   x2="81.583801"
   y1="395.91519"
   x1="93.843803"
   gradientUnits="userSpaceOnUse"
   id="SVGID_12_">
		<stop
   id="stop85"
   style="stop-color:#E7B921"
   offset="0" />
		<stop
   id="stop87"
   style="stop-color:#DF7027"
   offset="1" />
	</linearGradient>
	<path
   style="fill:url(#SVGID_12_)"
   inkscape:connector-curvature="0"
   id="path90"
   d="m 91.9,311.4 h -0.3 c -0.1,-1.7 -1.2,-3.2 -2.8,-3.8 v 1.5 c 0,0.1 -0.1,0.2 -0.2,0.2 -0.1,0 -0.2,-0.1 -0.2,-0.2 v -1.6 c -0.3,-0.1 -0.6,-0.1 -0.8,-0.1 v 2 c 0,0.1 -0.1,0.2 -0.2,0.2 -0.1,0 -0.2,-0.1 -0.2,-0.2 v 0 -2 c -0.3,0 -0.6,0 -0.9,0.1 v 1.6 c 0,0.1 -0.1,0.2 -0.2,0.2 -0.1,0 -0.1,-0.2 -0.1,-0.3 v -1.5 c -1.7,0.6 -2.9,2.1 -2.9,3.9 H 83 c -0.3,0 -0.5,0.2 -0.5,0.5 0,0.3 0.2,0.5 0.5,0.5 h 8.9 c 0.3,0 0.5,-0.2 0.5,-0.5 0,-0.3 -0.2,-0.5 -0.5,-0.5 z"
   class="st11" />
	
		<linearGradient
   gradientTransform="matrix(1,0,0,-1,0,676)"
   y2="384.79929"
   x2="145.4803"
   y1="353.6593"
   x1="68.900299"
   gradientUnits="userSpaceOnUse"
   id="SVGID_13_">
		<stop
   id="stop92"
   style="stop-color:#302E2F"
   offset="1.000000e-02" />
		<stop
   id="stop94"
   style="stop-color:#5A6870"
   offset="1" />
	</linearGradient>
	<path
   style="fill:url(#SVGID_13_)"
   inkscape:connector-curvature="0"
   id="path97"
   d="m 83.7,312.8 c 0.1,1 0.6,5.3 3.9,5.3 3.1,0 3.8,-4.1 3.7,-5.3 z"
   class="st12" />
	
		<linearGradient
   gradientTransform="matrix(1,0,0,-1,0,676)"
   y2="369.11221"
   x2="151.8632"
   y1="337.96219"
   x1="75.283203"
   gradientUnits="userSpaceOnUse"
   id="SVGID_14_">
		<stop
   id="stop99"
   style="stop-color:#302E2F"
   offset="1.000000e-02" />
		<stop
   id="stop101"
   style="stop-color:#5A6870"
   offset="1" />
	</linearGradient>
	<path
   style="fill:url(#SVGID_14_)"
   inkscape:connector-curvature="0"
   id="path104"
   d="m 119,338.6 c -1.1,0.4 -3.2,3.5 -3.2,3.5 0,0 -2.5,-4.4 -4.1,-6.8 -1.6,-2.4 -4.5,-6.2 -8.6,-5.3 -1.2,-6.4 -1.9,-6.8 -3.9,-5.2 -2,1.6 -5.2,4.8 -5.2,4.8 0,0 -1.4,-4.5 0.4,-7.5 1.8,-3 5.1,-7.1 7.5,-10.3 2,-2.9 3.6,-6.1 4.7,-9.5 0.1,-1.1 -0.2,-2.2 -0.7,-3.2 -0.6,0.3 -1,0.8 -1.2,1.4 -0.2,0.9 0,0.5 -1.5,2.9 -1.5,2.4 -3.9,5.3 -4.8,6.8 -0.9,1.5 -3.8,5.9 -4.6,6.4 -1,0.6 -2.2,0.8 -3.3,0.5 -0.8,-0.4 -1.7,-0.8 -1.7,-0.8 l -2.5,0.3 h -0.2 c -0.8,0 -3.8,0.1 -5.1,2.4 -1.4,2.6 -4.2,7.8 -3.2,8.7 2,1.3 4,2.5 6.1,3.5 0,0 0.6,5.3 4.3,7.7 -0.5,4.8 -0.1,5.2 -0.1,5.2 0,0 3.4,0.1 3.6,-1.5 0.2,-1.6 0.2,-1.9 0.2,-1.9 0,0 7.7,-1.2 8.5,-1.8 0.6,2.8 0.8,3.3 1.1,3.3 1.4,-0.3 2.7,-0.8 3.8,-1.7 1.6,-1.1 2.7,-2 2.7,-2 0,0 7,8.2 8.7,8.6 1.7,0.4 1.3,-0.5 2.6,-4 1.3,-3.5 0.8,-4.9 -0.3,-4.5 z M 81.1,325.2 c 0.3,-0.3 1.1,-1.4 1.1,-1.4 l 0.7,3 c -0.1,0 -0.8,-0.1 -1.8,-1.6 z"
   class="st13" />
</g></g>
</svg>